<?xml version="1.0" encoding="UTF-8"?>
<svg version="1.1" viewBox="0 0 1600 1600" width="1280" height="1280" xmlns="http://www.w3.org/2000/svg">
<path transform="translate(474 828)" d="m0 0c3.23 2.05 5.9 4.51 8.69 7.12 7.84 7.3 16.6 13.4 25.2 19.6 0.822 0.594 1.64 1.19 2.49 1.8 11.3 8.19 22.9 15.7 35 22.8 2.47 1.44 4.93 2.89 7.39 4.35 57.9 34.1 124 54.9 191 62.3 0.744 0.0833 1.49 0.167 2.25 0.252 18 1.98 35.8 2.71 53.9 2.69 0.988-6.04e-4 1.98-0.00121 2.99-0.00183 70.4-0.117 139-15.8 203-44.2 0.87-0.383 1.74-0.765 2.64-1.16 23.3-10.3 46.4-23.3 67.4-37.8 1.57-1.08 3.15-2.17 4.72-3.25 13.3-9.21 26.1-18.8 38.4-29.3 1.42-1.21 1.42-1.21 2.88-2.45 1.24-1.21 1.24-1.21 2.5-2.45 2.5-1.55 2.5-1.55 5.36-1.02 1.04 0.485 2.07 0.969 3.14 1.47 1.13 0.526 2.26 1.05 3.42 1.59 1.26 0.63 2.52 1.27 3.77 1.91 1.04 0.53 1.04 0.53 2.11 1.07 1.49 0.757 2.97 1.52 4.45 2.28 2.17 1.11 4.35 2.21 6.54 3.3 14.7 7.48 28.7 16.2 42.7 24.8 1.41 0.872 1.41 0.872 2.85 1.76 10.9 6.78 21.6 13.8 32.2 21.2 0.58 0.404 1.16 0.808 1.76 1.22 9.62 6.7 18.9 13.8 28.1 21.1 2.02 1.58 4.04 3.15 6.07 4.72 6.1 4.73 12 9.59 17.7 14.8 2.44 2.19 4.96 4.24 7.53 6.28 5.74 4.63 11.1 9.65 16.4 14.7 0.653 0.621 1.31 1.24 1.98 1.88 0.579 0.555 1.16 1.11 1.76 1.68 1.77 1.65 1.77 1.65 3.97 3.15 0.588 0.469 1.18 0.938 1.78 1.42v2c0.576 0.251 1.15 0.501 1.74 0.759 2.56 1.41 4.28 3.02 6.34 5.09 1.15 1.15 1.15 1.15 2.33 2.33l2.4 2.44c0.782 0.782 1.56 1.56 2.37 2.37 4.27 4.31 8.37 8.71 12.3 13.3 1.74 2 3.58 3.86 5.49 5.7 3.88 3.84 7.46 7.85 11 12 0.882 1.02 1.77 2.04 2.65 3.05 12.3 14.2 24 28.9 35.4 43.9 0.461 0.611 0.922 1.22 1.4 1.85 8.6 11.4 16.6 23.3 24.6 35.1 0.484 0.718 0.969 1.44 1.47 2.18 17 25.3 32.3 52.3 45.5 79.8 0.493 1.02 0.987 2.05 1.5 3.1 8.74 18.2 16.7 36.6 24.1 55.4 1.2 3.04 2.41 6.08 3.62 9.11 25 63.1 38.6 131 44.8 198 0.119 1.27 0.237 2.54 0.359 3.84 1.47 16.3 1.86 32.6 1.95 48.9 0.00963 0.936 0.0193 1.87 0.0292 2.84 0.172 19.4 0.172 19.4-3.34 27.4l-1.25 3.03c-7.15 13.5-17.7 21.6-32.1 26-5.83 1.4-11.7 1.42-17.7 1.57-0.673 0.0185-1.35 0.037-2.04 0.056-22.5 0.612-45 0.467-67.6 0.455-6.17-0.0023-12.3 1.86e-4 -18.5 0.00248-12.7 0.00457-25.5 0.00447-38.2 0.00172-12.9-0.00276-25.8-0.00332-38.7-0.00126-0.818 1.29e-4 -1.64 2.58e-4 -2.48 3.91e-4 -3.33 5.33e-4 -6.66 0.00108-10 0.00165-31 0.00528-61.9 0.00565-92.9 0.00285-29.8-0.0027-59.7-0.00375-89.5-0.00248-1.88 7.75e-5 -3.75 1.55e-4 -5.63 2.31e-4 -7.54 3.1e-4 -15.1 6.29e-4 -22.6 9.6e-4 -21.1 9.17e-4 -42.2 0.00149-63.3 0.00179-0.96 1.36e-5 -1.92 2.73e-5 -2.91 4.14e-5 -30.6 4.09e-4 -61.1-7.16e-4 -91.7-0.00289-1.49-1.05e-4 -1.49-1.05e-4 -3-2.13e-4 -16.1-0.00114-32.2-0.00236-48.3-0.00359-63.8-0.00485-128-0.00463-191 2.31e-4 -16.1 0.00122-32.1 0.00243-48.2 0.00357-1.48 1.06e-4 -1.48 1.06e-4 -3 2.13e-4 -30.5 0.00216-61.1 0.00307-91.6 0.00264-0.959-1.36e-5 -1.92-2.72e-5 -2.91-4.12e-5 -21.1-3.13e-4 -42.1-9.46e-4 -63.2-0.00187-7.54-3.29e-4 -15.1-6.42e-4 -22.6-9.51e-4 -1.88-7.74e-5 -3.75-1.56e-4 -5.63-2.36e-4 -29.8-0.00127-59.6 1.5e-4 -89.4 0.00285-30.9 0.00277-61.8 0.00173-92.6-0.00353-3.33-5.52e-4 -6.65-0.00109-9.98-0.00161-1.22-1.95e-4 -1.22-1.95e-4 -2.47-3.95e-4 -12.8-0.00196-25.7-6.11e-4 -38.5 0.00216-12.7 0.00267-25.4 0.00168-38-0.00301-6.76-0.00241-13.5-0.00323-20.3 4.06e-4 -15.9 0.00772-31.9-0.0196-47.8-0.131-1.01-0.00637-2.01-0.0127-3.05-0.0193-5.7-0.0386-11.4-0.1-17.1-0.198-1.68-0.0266-3.36-0.0472-5.04-0.0609-16.2-0.145-28.5-3.66-40.5-15-11.4-12-14.6-25.7-14.5-41.8 0.00838-1.57 0.00838-1.57 0.0169-3.17 0.102-11.1 0.645-22.2 1.35-33.2 0.065-1.05 0.13-2.1 0.197-3.17 1.32-20.9 3.56-41.6 6.62-62.3 0.11-0.759 0.221-1.52 0.335-2.3 9.89-67.8 30.2-133 57.7-196 0.411-0.947 0.823-1.89 1.25-2.87 5.02-11.5 10.5-22.7 16.5-33.8 1.28-2.39 2.53-4.78 3.77-7.18 5.5-10.6 11.3-21 17.5-31.2 0.467-0.775 0.934-1.55 1.42-2.35 12.2-20.2 25-40.1 39.3-58.9 1.46-1.93 2.9-3.87 4.33-5.81 5.8-7.82 11.8-15.4 18-22.9 1.11-1.35 2.21-2.71 3.32-4.07 5.94-7.28 11.9-14.5 18.3-21.3 1.94-2.11 3.83-4.24 5.71-6.41 9.3-10.7 19.2-20.8 29.2-30.8 0.729-0.733 1.46-1.47 2.21-2.22 4-3.99 8.09-7.8 12.4-11.5 3.04-2.65 5.98-5.41 8.92-8.17 12.2-11.4 25.1-21.9 38.3-32.1 1.63-1.27 3.26-2.54 4.88-3.82 9.11-7.08 18.4-13.8 27.9-20.5 0.577-0.411 1.15-0.822 1.75-1.25 29.7-21.1 61.4-39.8 94.1-55.7 2.13-1.01 2.13-1.01 4.19-2.24 1.92-0.788 1.92-0.788 4.98 0.462z" fill="#000002"/>
<path transform="translate(791 49.9)" d="m0 0c86.7-2.66 175 25.2 277 103 2.25 2.1 4.4 3.92 6.97 5.63v2c0.54 0.214 1.08 0.428 1.64 0.648 3.21 1.84 5.61 4.35 8.18 6.98 0.804 0.816 0.804 0.816 1.62 1.65 4.02 4.11 7.85 8.34 11.6 12.7 0.857 0.98 1.71 1.96 2.6 2.97 12.2 13.9 23.4 28.4 33.4 44 0.588 0.893 1.18 1.79 1.78 2.71 8.64 13.3 16.4 27.1 23.3 41.3 0.938 1.95 1.9 3.88 2.86 5.81 15.8 32.1 26.1 67 32.1 102 0.14 0.826 0.281 1.65 0.425 2.5 3.59 21.5 4.99 42.9 4.95 64.6 1.21e-4 1.13 2.42e-4 2.25 3.66e-4 3.41-0.0305 20.1-1.34 39.6-4.38 59.5-0.16 1.07-0.32 2.14-0.485 3.25-10.7 69.5-42 139-88.5 192-0.634 0.733-1.27 1.47-1.92 2.22-3.91 4.51-7.92 8.94-11.9 13.4-1.91 2.14-3.75 4.32-5.59 6.54-0.846 0.949-1.69 1.9-2.56 2.88h-2v2c-1.26 1.27-1.26 1.27-3.12 2.81-3.39 2.87-6.66 5.83-9.89 8.87-6.45 6.06-13 11.8-20 17.3-0.865 0.706-1.73 1.41-2.62 2.14-33.6 26.8-72.8 47.9-113 61.9-0.986 0.344-1.97 0.687-2.99 1.04-22.3 7.71-45.2 13.1-68.4 16.8-1.22 0.195-2.43 0.39-3.69 0.591-19.4 2.92-38.8 3.98-58.4 3.91-1.04-0.00182-2.08-0.00365-3.15-0.00552-35.5-0.104-70.1-4.85-104-14.3-0.931-0.255-1.86-0.51-2.82-0.772-50.5-14-100-39.2-140-73.2-1.04-0.872-2.09-1.74-3.14-2.61-11.4-9.52-22.2-19.6-32.7-30.1-1.34-1.34-1.34-1.34-2.71-2.7-5.03-5.04-9.87-10.2-14.5-15.6-0.541-0.635-1.08-1.27-1.64-1.92-61.7-72.8-95.4-167-93.3-290 6.87-80.9 37.1-160 89.6-222 1.94-2.33 3.81-4.71 5.69-7.08 6.46-7.9 13.6-15.2 20.7-22.6 0.728-0.759 1.46-1.52 2.21-2.3 1.07-1.1 1.07-1.1 2.16-2.22 0.972-1 0.972-1 1.96-2.02 1.67-1.46 1.67-1.46 3.67-1.46v-2c1.26-1.3 1.26-1.3 3.12-2.88 0.735-0.623 1.47-1.25 2.23-1.89 0.874-0.739 1.75-1.48 2.65-2.24 1.03-0.901 2.06-1.8 3.09-2.71 67.4-59 154-92.8 253-97.4z" fill="#000002"/>
</svg>
