<?xml version="1.0" encoding="UTF-8"?>
<svg version="1.1" viewBox="0 0 1600 1600" width="1280" height="1280" xmlns="http://www.w3.org/2000/svg">
<path transform="translate(618,18)" d="m0 0c0.928 0.148 1.86 0.296 2.81 0.449 5.18 0.879 10.2 1.99 15.2 3.55v2c1.98 0.33 3.96 0.66 6 1v2c2.47 0.495 2.47 0.495 5 1v2c0.576 0.0967 1.15 0.193 1.75 0.293 2.73 0.857 4.19 2.11 6.32 4.02 1.01 0.891 1.01 0.891 2.04 1.8 1.88 1.86 3.44 3.68 4.9 5.89v2h2c3.32 6.86 6.4 13.6 8.41 20.9 0.579 2.21 0.579 2.21 1.71 4.76 4.88 12.9 1.25 28.2-4.12 40.3-2.76 5.16-5.76 10.1-9 15h-2c-0.227 0.557-0.454 1.11-0.688 1.69-1.69 2.97-3.78 5.03-6.31 7.31h-2v2c-6.11 5.4-13.3 7.72-21 10-0.947 0.343-1.89 0.686-2.87 1.04-3.63 1.12-7.24 1.64-11 2.09-0.688 0.0864-1.38 0.173-2.09 0.262-1.68 0.21-3.36 0.412-5.04 0.613-0.266 0.869-0.531 1.74-0.805 2.63-1.18 3.31-2.6 6.18-4.32 9.24-0.808 1.45-0.808 1.45-1.63 2.93-0.615 1.09-0.615 1.09-1.24 2.2h-2c-0.166 1.1-0.166 1.1-0.336 2.21-0.698 2.93-1.69 4.81-3.29 7.35-0.532 0.859-1.06 1.72-1.61 2.6-0.581 0.936-1.16 1.87-1.76 2.84-1.28 2.14-2.55 4.29-3.81 6.44-0.584 0.989-1.17 1.98-1.77 3-1.52 2.56-1.52 2.56-2.42 5.57h-2c-0.112 0.552-0.224 1.1-0.34 1.67-0.774 2.73-1.93 5.06-3.22 7.58-0.455 0.892-0.91 1.78-1.38 2.7-0.349 0.675-0.699 1.35-1.06 2.05h-2c-0.0825 0.722-0.165 1.44-0.25 2.19-0.75 2.81-0.75 2.81-2.56 5.06-2.87 3.61-4.45 7.51-6.19 11.8h-2c-0.232 0.821-0.464 1.64-0.703 2.49-1.57 4.24-3.71 7.85-6.05 11.7-0.9 1.5-1.8 3-2.7 4.51-0.436 0.73-0.872 1.46-1.32 2.21-2.53 4.3-4.89 8.69-7.23 13.1h-2c-0.112 0.726-0.224 1.45-0.34 2.2-0.69 2.93-1.72 5.02-3.22 7.61-0.455 0.79-0.91 1.58-1.38 2.39-0.349 0.592-0.699 1.18-1.06 1.79h-2c-0.0812 0.674-0.162 1.35-0.246 2.04-0.982 3.85-2.79 6.88-4.82 10.3-0.566 0.968-0.566 0.968-1.14 1.96-0.925 1.58-1.86 3.16-2.79 4.73h-2c-0.162 1.09-0.162 1.09-0.328 2.21-0.718 2.99-1.77 4.91-3.42 7.48-3.09 4.96-5.72 10.1-8.25 15.3h-2c-0.0966 0.54-0.193 1.08-0.293 1.64-0.911 3.05-2.38 5.44-4.02 8.17-0.333 0.556-0.665 1.11-1.01 1.69-0.709 1.19-1.42 2.37-2.13 3.55-1.47 2.45-2.94 4.9-4.4 7.35-0.721 1.21-1.44 2.41-2.16 3.62-2.68 4.47-5.32 8.96-7.91 13.5-0.587 1.02-1.17 2.04-1.78 3.09-1.39 2.44-1.39 2.44-2.29 5.41h-2v4c0.767-0.00608 1.53-0.0122 2.32-0.0184 27.7-0.218 55.5-0.391 83.2-0.544 1.15-0.00638 2.29-0.0128 3.47-0.0193 101-0.557 201-0.373 352 0.00966 3.61 0.00971 7.22 0.0194 10.8 0.0291 62.1 0.167 124 0.348 186 0.543-1.72-4.06-3.43-7.96-5.7-11.7-0.73-1.23-0.73-1.23-1.47-2.49-1.02-1.7-2.04-3.4-3.06-5.1-0.483-0.816-0.966-1.63-1.46-2.47-0.442-0.736-0.883-1.47-1.34-2.23-0.962-1.97-0.962-1.97-0.962-4.97h-2c-0.33-1.65-0.66-3.3-1-5h-2l-1.56-3.31c-1.75-3.51-3.73-6.78-5.88-10.1-2.76-4.26-5.1-8.56-7.3-13.1-1.8-3.55-3.9-6.9-6.03-10.3-1.17-2.11-1.78-3.87-2.23-6.23h-2c-0.42-0.874-0.42-0.874-0.848-1.77-2.98-6.08-6.26-11.9-9.8-17.7-1.36-2.57-1.36-2.57-1.36-5.57h-2c-0.398-0.736-0.797-1.47-1.21-2.23-0.53-0.976-1.06-1.95-1.61-2.96-0.522-0.963-1.04-1.93-1.58-2.92-1.05-1.89-2.15-3.75-3.3-5.57-1.3-2.32-1.3-2.32-1.3-5.32h-2c-0.266-0.543-0.531-1.09-0.805-1.64-0.353-0.715-0.706-1.43-1.07-2.17-0.348-0.708-0.696-1.42-1.05-2.14-1.14-2.26-1.14-2.26-3.07-5.04v-3h-2c-0.33-1.65-0.66-3.3-1-5h-2c-3-5.62-3-5.62-3-9h-2c-0.315-0.664-0.629-1.33-0.953-2.01-2.63-5.49-2.63-5.49-6.05-10.5-2.5-3.12-4.03-6.47-5.76-10.1-1.07-2.1-2.2-3.96-3.55-5.88-1.69-2.56-1.69-2.56-1.69-5.56h-2c-0.257-0.548-0.513-1.1-0.777-1.66-3.03-6.27-6.47-12.2-10.2-18.1-2.11-3.4-3.58-6.27-4.04-10.3h-2c-0.838-1.46-1.67-2.91-2.5-4.38-0.464-0.812-0.928-1.62-1.41-2.46-1.09-2.16-1.09-2.16-1.09-4.16-0.604-0.0595-1.21-0.119-1.83-0.18-22.2-2.29-22.2-2.29-32.2-8.82-0.838-0.522-1.68-1.04-2.54-1.58-3.99-2.56-7.94-5.24-11.5-8.42v-2c-0.99-0.33-1.98-0.66-3-1-6.9-8.39-11.4-18.5-14-29-0.205-0.811-0.41-1.62-0.621-2.46-3.7-16.2 0.233-31.6 6.62-46.5h2c0.289-0.928 0.578-1.86 0.875-2.81 1.12-3.19 1.12-3.19 3.12-6.19h2c0.247-0.619 0.495-1.24 0.75-1.88 1.46-2.48 2.63-3.08 5.25-4.12v-2c2.38-1.84 2.38-1.84 5.56-3.94 1.03-0.69 2.07-1.38 3.13-2.09 16.4-9.75 36.1-9.76 54.2-5.55 5.31 1.49 10.2 3.97 15.1 6.58v2c0.593 0.125 1.19 0.25 1.8 0.379 8.15 2.3 14.2 10.3 18.2 17.4 9.25 17.2 12.6 34 8 53.3-1.2 3.16-2.51 6.2-3.98 9.25-1.15 3.09-1.21 5.49-1.02 8.75h2c0.352 0.655 0.704 1.31 1.07 1.98 4.54 8.4 9.29 16.7 14.2 24.8 10.7 17.7 10.7 17.7 10.7 21.2h2c0.818 1.58 1.63 3.16 2.44 4.75 0.452 0.882 0.905 1.76 1.37 2.67 1.03 2.22 1.71 4.19 2.19 6.58h2c0.33 1.65 0.66 3.3 1 5h2c0.835 1.73 0.835 1.73 1.69 3.5 1.87 3.77 4.01 7.25 6.36 10.7 0.953 1.76 0.953 1.76 0.953 4.76h2c0.266 0.543 0.531 1.09 0.805 1.64 0.353 0.715 0.706 1.43 1.07 2.17 0.348 0.708 0.696 1.42 1.05 2.14 1.14 2.26 1.14 2.26 3.07 5.04v3h2c0.245 0.525 0.49 1.05 0.742 1.59 3.27 6.78 7.03 13.2 11 19.6 0.639 1.06 0.639 1.06 1.29 2.14 0.387 0.633 0.774 1.27 1.17 1.92 0.839 1.74 0.839 1.74 0.839 4.74h2c0.459 0.953 0.918 1.91 1.39 2.89 0.619 1.27 1.24 2.53 1.86 3.8 0.3 0.626 0.601 1.25 0.91 1.9 1.91 3.89 4.06 7.07 6.84 10.4 0.872 1.44 1.71 2.89 2.5 4.38 1.56 2.89 3.14 5.74 4.81 8.56 1.69 3.06 1.69 3.06 1.69 5.06h2c0.33 1.98 0.66 3.96 1 6h2c0.33 1.65 0.66 3.3 1 5h2c1.01 1.77 2.01 3.54 3 5.31 0.835 1.48 0.835 1.48 1.69 2.99 1.31 2.7 1.31 2.7 1.31 5.7h2c0.33 1.65 0.66 3.3 1 5h2c3 5.62 3 5.62 3 9h2c0.33 1.65 0.66 3.3 1 5h2c0.818 1.58 1.63 3.16 2.44 4.75 0.452 0.882 0.905 1.76 1.37 2.67 1.03 2.22 1.71 4.19 2.19 6.58h2c0.454 0.944 0.454 0.944 0.918 1.91 2.46 5.04 5.06 9.83 8.16 14.5 0.918 1.59 0.918 1.59 0.918 3.59h2c3 5.75 3 5.75 3 8h2v2c0.757-7.59e-4 1.51-0.00152 2.29-0.0023 44.9-0.0447 89.7-0.0791 135-0.0998 5.38-0.0025 10.8-0.00509 16.2-0.00773 1.07-5.25e-4 2.14-0.00105 3.25-0.00159 17.4-0.00871 34.7-0.0245 52.1-0.0429 17.8-0.0187 35.6-0.0298 53.4-0.0339 11-0.00275 22-0.0114 33-0.0277 7.53-0.0106 15.1-0.0138 22.6-0.0112 4.35 0.00128 8.7-7.03e-4 13-0.0114 3.98-0.00973 7.96-0.0102 11.9-0.00339 1.44 8.45e-4 2.88-0.00169 4.32-0.00797 11.4-0.0466 20.9 0.771 29.8 8.62 6.08 6.57 10.3 15.5 10.6 24.4-0.36 6.78-2 13-3.98 19.5-1.4 4.71-2.57 9.46-3.72 14.2-0.953 3.91-2.1 7.69-3.4 11.5-0.636 2.18-1.26 4.37-1.88 6.56-1.36 4.81-2.77 9.6-4.25 14.4-0.33 1.07-0.66 2.13-1 3.23-0.289 0.933-0.578 1.87-0.875 2.83-1.46 4.79-2.54 9.55-3.44 14.5-0.652 2.93-1.6 5.69-2.56 8.53-0.857 2.81-1.68 5.62-2.5 8.44-0.319 1.09-0.319 1.09-0.645 2.2-1.94 6.62-3.83 13.2-5.66 19.9l-1.02 3.71c-0.693 2.52-1.39 5.04-2.08 7.56-1.71 6.21-3.44 12.4-5.22 18.6-1.62 5.66-3.1 11.3-4.47 17.1-0.957 3.92-2.1 7.71-3.4 11.5-0.856 2.81-1.68 5.62-2.5 8.44-0.319 1.09-0.319 1.09-0.645 2.2-0.621 2.12-1.24 4.24-1.86 6.37-0.33 1.13-0.66 2.27-1 3.44-1.46 5.19-2.8 10.4-4.14 15.6-1.14 4.38-2.41 8.65-3.86 12.9-0.765 2.68-1.51 5.37-2.25 8.06-1.86 6.74-3.75 13.5-5.69 20.2-2.37 8.24-4.64 16.5-6.88 24.8-1.72 6.35-3.54 12.7-5.42 19-1.74 5.85-3.32 11.7-4.87 17.6-2.5 9.4-2.5 9.4-3.89 12.8-1.06 2.72-1.74 5.45-2.44 8.28-0.965 3.92-1.98 7.82-3 11.7l-0.619 2.41c-1.01 3.88-2.1 7.7-3.39 11.5-1.87 5.49-3.39 11.1-4.93 16.7-2.45 8.82-4.95 17.6-7.58 26.4-1.53 5.3-2.81 10.6-4.09 16-2.12 8.85-4.49 17.5-7.33 26.2-3.15 9.59-5.76 19.3-8.23 29.1-1.45 5.76-2.98 11.5-4.72 17.1-0.936 3.06-1.8 6.14-2.68 9.21-0.381 1.28-0.764 2.56-1.15 3.84-2.55 8.51-4.88 17-6.96 25.7-0.828 3.23-1.82 6.34-2.89 9.49-2.6 8.66-4.93 17.4-7.16 26.2-1.2 4.63-2.57 9.16-4.12 13.7-1.06 3.17-1.99 6.37-2.91 9.59-0.344 1.19-0.688 2.39-1.04 3.62-0.854 2.76-0.854 2.76-0.77 4.94 0.83 0.242 1.66 0.485 2.52 0.734 4.02 1.46 7.54 3.38 11.2 5.52 1.05 0.6 1.05 0.6 2.12 1.21 1.4 0.801 2.79 1.61 4.19 2.41 1.73 1 3.47 1.99 5.21 2.98 0.902 0.522 1.8 1.04 2.73 1.58 0.784 0.452 1.57 0.905 2.38 1.37 0.536 0.393 1.07 0.786 1.62 1.19v2h3v2c0.674 0.227 1.35 0.454 2.04 0.688 3.78 1.68 6.93 3.9 10.3 6.31 0.645 0.451 1.29 0.902 1.96 1.37 1.62 1.16 3.18 2.39 4.73 3.63v2c1.32 0.33 2.64 0.66 4 1v2c0.598 0.289 1.2 0.578 1.81 0.875 2.19 1.12 2.19 1.12 5.19 3.12v2l1.69 0.75c3.87 2.09 7.43 4.91 10.3 8.25v2c0.99 0.33 1.98 0.66 3 1v2h2c1.35 1.65 2.69 3.32 4 5 0.66 0.33 1.32 0.66 2 1v2c0.99 0.33 1.98 0.66 3 1 1.63 1.75 3.18 3.58 4.69 5.44 0.808 0.989 1.62 1.98 2.45 3 1.86 2.57 1.86 2.57 1.86 4.57h2v3h2c2.33 1.77 2.95 2.82 3.69 5.69 0.103 0.763 0.206 1.53 0.312 2.31h2c1.51 1.9 1.51 1.9 3.12 4.38 0.539 0.812 1.08 1.62 1.63 2.46 1.24 2.16 1.24 2.16 1.24 4.16h2c0.33 1.32 0.66 2.64 1 4h2c0.33 1.65 0.66 3.3 1 5h2c0.818 1.58 1.63 3.16 2.44 4.75 0.452 0.882 0.905 1.76 1.37 2.67 1.03 2.22 1.71 4.19 2.19 6.58h2c7.58 15.7 14.9 31.4 20.5 47.9 0.255 0.743 0.511 1.49 0.774 2.25 1.22 3.72 2.03 6.95 1.73 10.9h2c0.199 1.17 0.199 1.17 0.402 2.37 0.177 1.01 0.353 2.02 0.535 3.07 0.261 1.51 0.261 1.51 0.527 3.06 0.283 2.43 0.283 2.43 1.54 3.5 0.973 4.53 1.68 9.12 2.44 13.7 0.113 0.677 0.226 1.35 0.342 2.05 1.87 11.3 3.25 22.6 4.06 34 0.148 2.06 0.322 4.11 0.499 6.17 2.05 24.7-0.431 49.9-5.34 74.1-0.358 2.04-0.712 4.08-1.06 6.12-0.698 4.05-1.79 7.92-2.94 11.9-0.649 2.48-1.29 4.96-1.94 7.44-1.2 4.56-2.46 9.04-4.22 13.4-1.16 2.95-2.17 5.96-3.21 8.95-2.23 6.24-4.78 12.2-7.62 18.2-0.668 1.46-1.33 2.92-2 4.38-4.74 10.3-9.95 20-16 29.6-0.642 1.04-1.28 2.09-1.95 3.16-2.46 3.96-4.9 7.79-7.93 11.3-2.29 2.38-2.29 2.38-3.12 5.5h-2c-0.227 0.516-0.454 1.03-0.688 1.56-1.79 3.33-3.81 6.58-6.31 9.44h-2c-0.248 0.536-0.495 1.07-0.75 1.62-1.56 2.96-3.28 5.67-5.25 8.38h-2c-0.33 0.99-0.66 1.98-1 3h-2c-0.227 0.557-0.454 1.11-0.688 1.69-1.69 2.97-3.84 4.96-6.31 7.31l-2.69 2.81c-2.31 2.19-2.31 2.19-4.31 2.19-0.33 0.99-0.66 1.98-1 3h-2v2c-1.55 1.42-3.17 2.76-4.81 4.06-1.01 0.804-2.01 1.61-3.05 2.44-0.523 0.415-1.05 0.83-1.58 1.26-2.38 1.9-4.71 3.86-7.05 5.8-15.2 12.4-15.2 12.4-19.5 12.4v2c-1.79 1.47-1.79 1.47-4.19 3.06-0.777 0.527-1.55 1.05-2.36 1.6-2.53 1.38-4.62 1.93-7.46 2.34v2c-1.77 1.01-3.54 2.01-5.31 3-1.48 0.835-1.48 0.835-2.99 1.69-2.7 1.31-2.7 1.31-5.7 1.31v2c-0.559 0.208-1.12 0.415-1.7 0.629-5.13 1.97-9.99 4.2-14.9 6.75-13.2 6.75-27.3 10.6-41.6 14.3-2.72 0.719-5.37 1.49-8.04 2.38-41.4 13.8-99.9 12.8-142 0.824-2.86-0.804-5.68-1.43-8.61-1.97-3-0.562-5.83-1.27-8.72-2.26-0.783-0.267-1.57-0.534-2.37-0.808-1.25-0.429-1.25-0.429-2.53-0.867-1.79-0.599-3.59-1.2-5.38-1.8-11.2-3.8-22-7.95-32.6-13.2-2.81-1.33-5.62-2.63-8.44-3.94-1.27-0.592-2.54-1.18-3.81-1.78-0.909-0.424-1.82-0.848-2.75-1.29v-2c-0.726-0.112-1.45-0.224-2.2-0.34-2.93-0.69-5.02-1.72-7.61-3.22-0.79-0.455-1.58-0.91-2.39-1.38-0.592-0.349-1.18-0.699-1.79-1.06v-2c-0.743-0.289-1.48-0.578-2.25-0.875-2.32-0.948-4.53-1.97-6.75-3.12v-2c-0.66-0.206-1.32-0.412-2-0.625-3.47-1.59-6.16-3.67-9.13-6.04-1.93-1.53-1.93-1.53-4.87-2.34-1.69-1.44-1.69-1.44-3-3v-2h-3v-2c-0.99-0.33-1.98-0.66-3-1v-2c-1.65-0.66-3.3-1.32-5-2v-2c-0.588-0.272-1.18-0.544-1.78-0.824-5.45-2.89-9.49-7.34-13.2-12.2-0.66-0.33-1.32-0.66-2-1v-2h-2c-1.37-1.64-2.69-3.31-4-5-0.598-0.598-1.2-1.2-1.81-1.81-2.05-2.05-4-4.15-5.94-6.31l-1.86-2.07c-1.39-1.8-1.39-1.8-1.39-3.8h-2c-0.33-1.32-0.66-2.64-1-4h-2c-1.33-1.53-1.33-1.53-2.82-3.65-0.535-0.758-1.07-1.52-1.62-2.3-0.556-0.802-1.11-1.6-1.68-2.43-0.845-1.19-0.845-1.19-1.71-2.41-4.17-5.95-4.17-5.95-4.17-8.22h-2c-2.04-2.91-3-4.4-3-8h-2c-0.291-0.534-0.583-1.07-0.883-1.62-2.3-4.19-4.67-8.31-7.18-12.4-6.94-11.5-6.94-11.5-6.94-17h-2c-1.19-3.09-2.38-6.18-3.56-9.27-0.931-2.42-1.87-4.83-2.81-7.24-3.7-9.49-3.7-9.49-4.75-13.5-1.23-4.38-1.23-4.38-3.88-8-3.62-0.79-7.23-0.658-10.9-0.612-1.14-0.00547-2.29-0.0109-3.47-0.0166-3.2-0.0102-6.39 0.00224-9.59 0.0239-3.47 0.018-6.94 0.00711-10.4-2.22e-4 -6.09-0.00884-12.2 9.55e-4 -18.3 0.0228-9.05 0.0324-18.1 0.0362-27.2 0.034-15.2-0.00292-30.5 0.0173-45.7 0.0505-15.1 0.0328-30.2 0.0548-45.3 0.0626-0.938 4.89e-4 -1.88 9.78e-4 -2.84 0.00148-4.76 0.00242-9.53 0.00464-14.3 0.00677-33.8 0.0154-67.5 0.0532-101 0.105-32.8 0.0501-65.6 0.0926-98.3 0.123-1.01 9.41e-4 -2.02 0.00188-3.06 0.00285-22.1 0.0205-44.1 0.0393-66.2 0.0569-5.85 0.00468-11.7 0.0094-17.6 0.0141-4.82 0.00389-9.64 0.00775-14.5 0.0115-22.7 0.0179-45.3 0.0415-68 0.075-14.2 0.021-28.4 0.0391-42.7 0.0548-9 0.0101-18 0.0232-27 0.0405-6.02 0.0113-12 0.019-18 0.0237-3.43 0.00283-6.85 0.00727-10.3 0.0163-3.7 0.00888-7.39 0.0115-11.1 0.0126-1.05 0.00406-2.11 0.00811-3.19 0.0123-13.4-0.013-25.3-0.035-36-9.12v-2c-0.99-0.33-1.98-0.66-3-1v-2h-2c-3.96-6.7-6.97-13.2-9.24-20.7-0.545-2.27-0.545-2.27-1.76-3.34l-0.688-3.88c-0.98-5.15-2.5-10-4.12-15-2.13-6.56-4.01-13.1-5.62-19.8-2.09-8.65-4.51-17.2-7.04-25.7-2.01-6.8-3.92-13.6-5.7-20.5-1.56-5.89-3.32-11.7-5.2-17.5-2.29-7.19-4.08-14.4-5.73-21.8-1.29-5.53-2.91-10.9-4.64-16.3-2.22-6.92-4.12-13.8-5.8-20.9-1.13-4.63-2.7-8.86-4.58-13.2-1.26-3.4-1.78-6.84-2.28-10.4-0.662-3.29-1.7-6.34-2.79-9.51-1.31-3.99-2.32-8.04-3.36-12.1-0.416-1.63-0.834-3.26-1.25-4.89-0.18-0.707-0.36-1.41-0.545-2.14-0.782-2.8-1.72-5.53-2.64-8.28-0.613-2.06-1.21-4.12-1.8-6.18-0.502-1.75-0.502-1.75-1.01-3.54-0.349-1.23-0.698-2.45-1.06-3.71-0.358-1.25-0.716-2.51-1.08-3.8-2.15-7.58-4.26-15.2-6.25-22.8-1.55-5.85-3.3-11.6-5.16-17.4-2.09-6.56-3.79-13.1-5.28-19.9-0.897-4.02-2.04-7.86-3.34-11.8-0.613-2.06-1.21-4.12-1.8-6.18-0.502-1.75-0.502-1.75-1.01-3.54-0.349-1.23-0.698-2.45-1.06-3.71-0.358-1.25-0.716-2.51-1.08-3.8-2.15-7.58-4.26-15.2-6.25-22.8-1.23-4.63-2.56-9.23-3.94-13.8-2.55-8.51-4.88-17-6.96-25.7-0.829-3.23-1.81-6.34-2.89-9.49-3.05-9.36-5.77-18.7-8.09-28.3-1.44-5.88-2.91-11.8-4.84-17.5-0.991-3-1.89-6.01-2.76-9.04l-0.966-3.38-1.02-3.6c-0.527-1.85-0.527-1.85-1.07-3.74-2.65-9.32-5.27-18.6-7.88-28-1.49-5.35-3.01-10.7-4.56-16-1.79-6.21-3.35-12.5-4.88-18.7-1.37-5.46-2.96-10.8-4.68-16.2-2.44-7.6-4.51-15.2-6.35-23-1.03-4.07-2.23-7.98-3.89-11.8-0.839-2.26-1.38-4.28-1.88-6.62-1.09-5.17-2.57-10.2-4.05-15.3-1.45-5.08-2.8-10.2-4.15-15.3-1.69-6.54-1.69-6.54-3.93-12.9-1.02-2.62-1.71-5.24-2.36-7.98-0.52-2.09-1.08-4.18-1.66-6.26-0.182-0.659-0.364-1.32-0.551-2-0.539-1.95-1.08-3.89-1.63-5.84-0.693-3-0.98-5.43-0.805-8.49h-2l-0.367-1.94c-0.168-0.865-0.335-1.73-0.508-2.62-0.162-0.847-0.325-1.69-0.492-2.57-1.18-5.33-2.83-10.5-4.38-15.8-2.24-7.55-4.36-15.1-6.35-22.7-1.42-5.35-2.96-10.6-4.65-15.9-2.34-7.33-4.44-14.7-6.35-22.2-0.548-2.02-1.14-4.04-1.82-6.02-1.2-3.66-2.2-7.36-3.17-11.1-0.192-0.732-0.384-1.46-0.582-2.22-0.815-3.11-1.63-6.21-2.44-9.32-0.596-2.28-1.19-4.56-1.79-6.84-0.27-1.04-0.27-1.04-0.546-2.1-1.04-3.96-2.23-7.83-3.55-11.7-0.64-2.37-1.26-4.75-1.88-7.12-1.22-4.67-2.54-9.25-4.12-13.8-2.07-6.02-3.58-12.1-5.07-18.3-0.894-3.62-1.9-7.18-2.93-10.8-0.688-2.44-1.37-4.89-2.06-7.33-0.39-1.39-0.78-2.78-1.17-4.17-0.604-2.15-1.21-4.3-1.81-6.46-2.05-7.33-4.12-14.7-6.33-22-0.573-1.9-1.12-3.81-1.66-5.72-0.707-2.45-1.44-4.88-2.23-7.31l-0.65-2.02c-0.439-1.36-0.882-2.72-1.33-4.08-1.38-4.31-2.18-8.46-2.77-13-0.351-0.887-0.701-1.77-1.06-2.69-2.52-8.92-1.27-17.2 3.06-25.3 1.53-2.55 3.09-4.69 5-7h2v-2c3.46-3 3.46-3 6-3v-2c1.98-0.33 3.96-0.66 6-1v-2c4.16-0.787 8.08-1.12 12.3-1.11 1.25 6.93e-4 2.51 0.00139 3.8 0.0021 1.38 0.00583 2.77 0.0117 4.15 0.0177 1.48 0.00259 2.95 0.00472 4.43 0.00642 3.21 0.00462 6.42 0.0124 9.63 0.0225 5.22 0.0164 10.4 0.0258 15.7 0.034 5.62 0.00917 11.2 0.0188 16.9 0.0306 13.9 0.029 27.9 0.0406 41.8 0.0414 1.01 9.37e-5 2.02 1.87e-4 3.05 2.84e-4 8.3 7.22e-4 16.6 7.25e-4 24.9 5e-4 7.47-1.61e-4 14.9 3.51e-4 22.4 0.00179 1.07 1.98e-4 2.13 3.96e-4 3.23 6e-4 17.3 0.0042 34.5 0.0408 51.8 0.0884 17.7 0.048 35.5 0.0581 53.2 0.0337 10.9-0.0138 21.9 0.00256 32.8 0.0575 7.49 0.0349 15 0.0332 22.5 0.00262 4.33-0.0165 8.65-0.0167 13 0.0266 3.96 0.0394 7.92 0.0326 11.9-0.0107 1.43-0.00754 2.86 0.00183 4.3 0.0298 7.96 0.279 7.96 0.279 14.6-3.42 1.83-2.55 3.27-5.04 4.65-7.85 0.427-0.801 0.853-1.6 1.29-2.43 0.954-1.83 1.84-3.7 2.71-5.57h2c0.33-1.65 0.66-3.3 1-5h2c0.0825-0.701 0.165-1.4 0.25-2.12 0.921-3.53 2.68-5.89 4.75-8.88 0.33-0.99 0.66-1.98 1-3h2c0.104-0.721 0.209-1.44 0.316-2.18 0.752-3.1 1.92-5.19 3.62-7.88 1.84-2.93 3.57-5.82 5.06-8.94h2c0.0619-0.647 0.124-1.29 0.188-1.96 1.17-4.36 3.46-7.84 5.81-11.7 0.919-1.51 1.84-3.02 2.75-4.54 0.407-0.665 0.815-1.33 1.23-2.01 1.16-1.95 1.16-1.95 2.02-4.82h2c0.248-0.639 0.495-1.28 0.75-1.94 1.66-4.06 3.45-8.06 5.25-12.1h2c0.358-1.01 0.358-1.01 0.723-2.03 1.59-3.7 3.61-7.04 5.71-10.5 0.395-0.651 0.79-1.3 1.2-1.97 1.69-2.79 3.39-5.57 5.11-8.35 1.21-2.09 1.82-3.82 2.26-6.18h2c0.33-1.65 0.66-3.3 1-5h2c0.112-0.726 0.224-1.45 0.34-2.2 0.69-2.93 1.72-5.02 3.22-7.61 0.455-0.79 0.91-1.58 1.38-2.39 0.349-0.592 0.699-1.18 1.06-1.79h2c0.33-1.65 0.66-3.3 1-5h2c0.0825-0.701 0.165-1.4 0.25-2.12 0.921-3.53 2.68-5.89 4.75-8.88 0.33-0.99 0.66-1.98 1-3h2c0.33-1.65 0.66-3.3 1-5h2c0.122-0.583 0.244-1.17 0.37-1.77 0.642-2.28 1.48-3.94 2.7-5.96 0.417-0.698 0.835-1.4 1.26-2.12 0.445-0.734 0.89-1.47 1.35-2.22 0.915-1.53 1.83-3.06 2.74-4.59 0.443-0.744 0.886-1.49 1.34-2.25 2.07-3.53 3.99-7.13 5.92-10.7 1.25-2.26 2.59-4.43 3.99-6.61 1.54-2.4 2.6-4.45 3.69-7.12 1.87-4.17 4.29-7.54 7-11.2 1.61-2.41 2.65-4.71 3.62-7.43h2c0.26-0.856 0.521-1.71 0.789-2.59 1.25-3.52 2.8-6.63 4.59-9.91 0.878-1.62 0.878-1.62 1.77-3.28 1.27-2.21 2.62-4.37 4.05-6.48 2.07-3.14 2.48-4.08 1.8-7.74-0.867-2.12-1.81-4.18-2.83-6.23-3.33-7.9-4.67-15.1-4.54-23.6 0.0058-0.957 0.0116-1.91 0.0176-2.9 0.13-7.1 0.971-13.5 3.36-20.2h2c0.103-0.887 0.206-1.77 0.312-2.69 0.705-3.4 1.64-5.53 3.69-8.31h2c0.116-0.587 0.232-1.17 0.352-1.78 0.687-2.36 1.57-3.82 3.02-5.79 0.42-0.579 0.84-1.16 1.27-1.75 1.37-1.7 2.71-3.24 4.35-4.68h2c0.33-0.99 0.66-1.98 1-3 2-1.61 2-1.61 4.44-3.19 0.803-0.53 1.61-1.06 2.43-1.61 2.13-1.21 2.13-1.21 4.13-1.21v-2c13.1-5.42 25.6-9.46 40-7zm-525 421c1.23 7.4 2.44 14.3 4.5 21.4l0.645 2.31c0.848 2.99 1.71 5.9 2.89 8.78 1.34 3.44 2.1 7 2.9 10.6 1.75 7.62 3.51 15.2 5.99 22.7 1.28 3.84 2.43 7.71 3.57 11.6l0.645 2.17c1.03 3.51 2.02 7.03 2.89 10.6 0.87 3.51 1.83 6.97 2.84 10.4 1.37 4.76 2.68 9.52 3.94 14.3 1.77 6.72 3.72 13.4 5.69 20.1 2.4 8.13 4.64 16.3 6.58 24.5 0.701 2.69 1.48 5.25 2.37 7.87 1.61 4.73 2.88 9.51 4.11 14.4 1.32 5.18 2.74 10.2 4.44 15.3 1.14 3.91 2.22 7.83 3.31 11.8 0.308 1.11 0.617 2.21 0.934 3.35 0.919 3.3 1.84 6.6 2.75 9.9l0.781 2.81c1.83 6.58 1.83 6.58 2.62 9.44 1.46 5.28 2.96 10.6 4.49 15.8 2.45 8.46 4.71 17 6.94 25.5 2.67 10.2 5.48 20.4 8.66 30.4 2.27 7.17 4.42 14.3 5.94 21.7 0.542 2.37 0.542 2.37 1.42 4.86 1.66 5 3.04 10.1 4.46 15.1 0.308 1.1 0.617 2.21 0.934 3.34 2.12 7.61 4.17 15.2 6.15 22.9 1.63 6.27 3.38 12.5 5.35 18.6 2.33 7.3 4.43 14.6 6.35 22.1 1.26 4.78 2.62 9.51 4.04 14.2 2.54 8.45 4.85 16.9 6.95 25.5 1.58 6.39 3.22 12.7 5.34 19 4.03 11.9 7 24.1 10.1 36.3 0.289 1.13 0.578 2.26 0.876 3.42l0.78 3.06c0.829 3.02 1.81 5.97 2.81 8.94 0.494 1.72 0.973 3.45 1.44 5.19l0.773 2.87c0.526 1.96 1.05 3.93 1.58 5.89 1.28 4.74 2.62 9.41 4.21 14.1 0.361 1.66 0.705 3.33 1 5h2c-0.0464 1-0.0928 2-0.141 3.04 0.147 4.14 1.05 7.54 2.39 11.4 2.29 6.92 4.15 13.9 5.86 20.9 1.28 5.17 2.78 10.3 4.33 15.4 1.94 6.43 3.66 12.9 5.4 19.4 1.26 4.67 2.61 9.27 4.16 13.9 0.578 2.12 1.14 4.25 1.69 6.38 1.75 6.7 3.67 13.4 5.62 20 4.93 16.8 9.74 33.6 14.1 50.6 1.05 4.07 2.26 8.03 3.6 12 0.642 2.33 1.27 4.66 1.88 7 1.32 5.02 2.69 10 4.12 15 1.77 6.16 3.44 12.3 5.07 18.5 1.44 5.36 2.98 10.7 4.68 16 2.2 6.85 4.11 13.7 5.8 20.7 1.3 5.32 2.85 10.5 4.52 15.7 0.893 2.94 1.64 5.9 2.37 8.88 1.03 4.01 2.24 7.97 3.43 11.9 0.264 0.874 0.528 1.75 0.8 2.65 2.68 11.7 2.68 11.7 8.33 21.6 1.94 0.301 1.94 0.301 4.2 0.25 1.33 0.00713 1.33 0.00713 2.69 0.0144 0.984-0.00497 1.97-0.00994 2.98-0.0151 1.04 0.00261 2.09 0.00521 3.16 0.0079 3.54 0.00636 7.08-0.0017 10.6-0.00955 2.55 0.00159 5.09 0.00405 7.64 0.00732 5.56 0.0051 11.1 0.00392 16.7-0.00269 8.27-0.00979 16.5-0.00819 24.8-0.00425 13.9 0.00629 27.8 0.00309 41.7-0.00559 13.8-0.00861 27.6-0.0135 41.4-0.0133 0.857 7.65e-6 1.71 1.53e-5 2.6 2.32e-5 3.48 4.09e-5 6.96 1.07e-4 10.4 2.06e-4 32.7 9.07e-4 65.4-0.00905 98.1-0.0244 29-0.0136 58-0.0199 87-0.0192 1.86 4.04e-5 3.72 8.08e-5 5.58 1.21e-4 0.919 2.04e-5 1.84 4.07e-5 2.79 6.17e-5 4.63 1.01e-4 9.26 1.91e-4 13.9 2.7e-4 0.913 1.67e-5 1.83 3.34e-5 2.77 5.06e-5 24.3 3.66e-4 48.5-0.00418 72.8-0.0104 1.3-3.3e-4 1.3-3.3e-4 2.62-6.67e-4 3.47-8.88e-4 6.95-0.00178 10.4-0.00269 12.1-0.00315 24.1-0.00467 36.2-0.00511 15.6-5.99e-4 31.1-0.00464 46.7-0.0144 8.22-0.00508 16.4-0.00753 24.6-6e-3 6.16 8.29e-4 12.3-0.00363 18.5-0.0101 2.47-0.0018 4.95-0.00196 7.42-2.33e-4 15.6 0.0097 31.2-0.351 46.8-1.14 0.0178-1.15 0.0355-2.29 0.0538-3.47 0.5-31.9 1.61-63.7 10.4-94.5 0.623-2.21 1.23-4.42 1.83-6.63 2.05-7.53 4.11-15 6.74-22.4 0.391-1.18 0.391-1.18 0.789-2.38 3.04-8.86 7.13-17.2 11.2-25.6 0.298-0.623 0.596-1.25 0.903-1.89 4.49-9.39 9.61-18.3 15.1-27.1l1.95-3.14c2.55-4.06 5.15-8.05 7.98-11.9 2.25-2.61 2.25-2.61 2.06-4.94h2v-3c0.99-0.33 1.98-0.66 3-1 1.67-1.79 1.67-1.79 3.19-3.94 0.53-0.71 1.06-1.42 1.61-2.15 1.39-1.82 1.39-1.82 1.21-3.91h2c1.58-1.48 1.58-1.48 3.12-3.38 0.539-0.626 1.08-1.25 1.63-1.9 1.44-1.64 1.44-1.64 1.24-3.73 0.99-0.33 1.98-0.66 3-1v-2h2c1.41-1.43 1.41-1.43 2.81-3.25 2.49-3.01 5.06-5.38 8.19-7.75 1.77-1.52 1.77-1.52 3-3v-2l1.69-0.75c2.74-1.48 4.99-3.18 7.31-5.25v-2c0.99-0.33 1.98-0.66 3-1v-2c0.866-0.124 0.866-0.124 1.75-0.25 2.87-0.956 4.17-2.6 6.25-4.75 0.99-0.33 1.98-0.66 3-1v-2c0.763-0.289 1.53-0.577 2.31-0.875 2.84-1.09 2.84-1.09 5.69-3.12v-2c0.521-0.0838 1.04-0.168 1.58-0.254 3.37-1.04 6.2-2.84 9.17-4.68 0.602-0.36 1.2-0.721 1.82-1.09 1.51-0.931 2.97-1.95 4.43-2.97v-2c0.717-0.102 1.43-0.204 2.17-0.309 3.18-0.778 5.3-2.01 8.08-3.75 7.04-4.23 14.4-7.65 21.8-11.1 1.61-0.743 3.22-1.51 4.82-2.29 19.6-9.41 41.8-14.7 63.1-18.6 0.658-0.153 1.32-0.305 1.99-0.462 8.71-1.95 17.6-2.54 26.4-3.23 0.864-0.067 1.73-0.134 2.62-0.203 15.1-1.14 29.8-1.19 44.9-0.11 2.46 0.152 4.91 0.303 7.37 0.453 2.44 0.159 4.88 0.32 7.32 0.484 1.12 0.0744 2.23 0.149 3.39 0.225 5.88 0.442 11.2 1.29 16.9 2.84 3.33 0.169 3.33 0.169 6 0v2h4c5.36-13 9.4-26.3 12.7-40 2.25-9.3 4.89-18.4 7.88-27.5 2.5-7.63 4.42-15.2 5.85-23.1 0.563-2.39 0.563-2.39 1.5-4.72 1.04-2.62 1.85-5.22 2.61-7.93l0.86-3.06c0.297-1.07 0.595-2.14 0.901-3.25 0.464-1.66 0.464-1.66 0.937-3.35 2.16-7.78 4.19-15.6 6.06-23.4 1.28-5.32 2.9-10.5 4.69-15.6 2.61-7.95 4.78-15.9 6.61-24.1 0.917-4.07 2.07-7.96 3.39-11.9 1.21-4.09 2.35-8.2 3.5-12.3l0.934-3.3c1.52-5.43 2.96-10.8 4.06-16.4 0.619-2.44 1.57-4.68 2.51-7.01 0.566-1.85 1.1-3.71 1.62-5.57 0.296-1.06 0.592-2.12 0.896-3.22 0.304-1.1 0.607-2.2 0.92-3.34 0.3-1.08 0.599-2.16 0.908-3.27 2.2-7.92 4.38-15.8 6.5-23.8 1.1-4.12 2.25-8.19 3.66-12.2 1.17-3.43 2.04-6.84 2.81-10.4 1.69-7.57 3.85-15 6.01-22.4 1.81-6.26 3.56-12.5 5.3-18.8 1.83-6.57 3.69-13.1 5.75-19.6 1.32-4.16 2.09-8.06 2.62-12.4 0.28-0.675 0.559-1.35 0.848-2.05 1.68-4.3 2.78-8.74 3.96-13.2 1.86-6.92 3.76-13.8 5.81-20.7 2.28-7.65 4.35-15.3 6.38-23.1 0.497-1.85 0.997-3.71 1.5-5.56 0.233-0.861 0.467-1.72 0.707-2.61 0.6-2.14 1.23-4.28 1.87-6.41 0.367-1.23 0.735-2.46 1.11-3.73 0.344-1.13 0.688-2.26 1.04-3.43 0.759-3.22 0.914-5.97 0.77-9.26h2c0.346-1.42 0.346-1.42 0.699-2.87 2.01-8.17 4.15-16.3 6.44-24.4 1.79-6.4 3.41-12.8 4.97-19.3 0.541-2.09 1.13-4.17 1.82-6.21 1.88-5.68 3.33-11.5 4.86-17.3 0.255-0.949 0.51-1.9 0.773-2.88 0.228-0.857 0.456-1.71 0.691-2.6 0.77-2.57 1.73-5.01 2.75-7.49 0.577-1.99 1.12-3.99 1.62-6 0.26-1.01 0.521-2.02 0.789-3.06 0.749-3.26 0.749-3.26 0.586-7.94h-1410zm1183 613c-18.1 0.378-35.7 3.38-53.3 7.46-0.825 0.189-1.65 0.378-2.5 0.573-5.15 1.25-9.95 2.96-14.8 4.99-2.78 1.14-5.6 2.08-8.46 2.99-4.39 1.43-8.61 3.03-12.8 4.94v2c-2.97 0.495-2.97 0.495-6 1v2l-2.2 0.34c-2.93 0.69-5.02 1.72-7.61 3.22l-2.39 1.38c-0.592 0.349-1.18 0.699-1.79 1.06v2c-0.695 0.0838-1.39 0.168-2.11 0.254-3.62 0.934-6.11 2.59-9.21 4.68l-3.24 2.15c-0.808 0.63-1.62 1.26-2.45 1.91v2c-1.14 0.433-1.14 0.433-2.31 0.875-2.84 1.09-2.84 1.09-5.69 3.12v2h-3v2c-0.598 0.289-1.2 0.578-1.81 0.875-2.38 1.17-2.38 1.17-5.19 3.12v2c-0.835 0.371-0.835 0.371-1.69 0.75-4.81 2.6-7.97 5.99-11.3 10.2l-2 1v2h-2c-2.4 2.64-2.4 2.64-3 6-0.99 0.33-1.98 0.66-3 1-1.66 1.52-1.66 1.52-3.19 3.38-0.53 0.606-1.06 1.21-1.61 1.84-1.49 1.84-1.49 1.84-1.21 4.79h-2c-3.3 3.45-3.3 3.45-4 8h-2c-1.47 2.01-2.81 4.01-4.12 6.12-0.399 0.633-0.798 1.27-1.21 1.92-15.8 25.2-26.5 50.7-32.7 80-0.165 0.762-0.331 1.52-0.501 2.31-2.7 12.6-4.23 24.8-4.5 37.7-0.04 1.08-0.0799 2.16-0.121 3.27-0.461 20.7 3.14 41.1 7.62 61.2 0.201 0.908 0.403 1.82 0.611 2.75 2.13 9.31 5.31 18 8.89 26.9 0.343 0.855 0.686 1.71 1.04 2.59 1.93 4.79 3.91 9.55 5.96 14.3h2c0.112 0.726 0.224 1.45 0.34 2.2 0.69 2.93 1.72 5.02 3.22 7.61 0.455 0.79 0.91 1.58 1.38 2.39 0.524 0.888 0.524 0.888 1.06 1.79h2c0.33 1.65 0.66 3.3 1 5h2c0.0529 0.664 0.106 1.33 0.16 2.01 1.2 4.27 3.63 7.29 6.28 10.8 0.755 1.04 0.755 1.04 1.53 2.1 1.92 2.63 1.92 2.63 4.04 5.09h2c0.259 0.566 0.518 1.13 0.785 1.71 1.34 2.51 2.89 4.61 4.65 6.85 0.895 1.15 0.895 1.15 1.81 2.32 1.52 1.83 2.96 3.56 4.75 5.12h2c0.495 1.49 0.495 1.49 1 3h2c0.495 1.49 0.495 1.49 1 3h2v2c1.64 1.36 3.32 2.69 5 4 2.27 2.22 4.5 4.45 6.62 6.81 1.45 1.51 1.45 1.51 4.38 1.19 0.495 1.49 0.495 1.49 1 3h2v2c1.95 1.59 1.95 1.59 4.38 3.12 1.22 0.808 1.22 0.808 2.46 1.63 2.04 1.41 2.04 1.41 4.16 1.24v2c0.592 0.315 1.18 0.629 1.79 0.953 0.79 0.428 1.58 0.856 2.39 1.3 0.777 0.418 1.55 0.835 2.36 1.27 2.46 1.48 2.46 1.48 4.61 3.34 4.07 3.06 8.54 5.02 13.2 7.14 1.83 0.853 3.66 1.71 5.49 2.56 0.882 0.41 1.76 0.82 2.67 1.24 2.3 1.09 4.56 2.22 6.82 3.38 3.14 1.59 6.28 2.81 9.64 3.88l3.12 1c0.969 0.308 1.94 0.616 2.94 0.934 1.48 0.498 2.96 0.997 4.44 1.5 23.6 7.83 45.4 11.7 70.2 11.6 2.91-0.00536 5.81-2.69e-5 8.72 0.00635 1.88-6.61e-4 3.75-0.00194 5.63-0.00391 0.854 0.00202 1.71 0.00405 2.59 0.00613 7.95-0.0304 15.7-0.531 23.4-2.62 2.94-0.764 5.92-1.3 8.91-1.87 13.6-2.58 27-6.05 40.1-10.7v-2c0.804-0.0825 1.61-0.165 2.44-0.25 7.75-1.63 14.9-5.82 21.8-9.5 1.23-0.649 1.23-0.649 2.48-1.31 10.4-5.5 10.4-5.5 20.3-11.9v-2c0.566-0.0928 1.13-0.186 1.71-0.281 2.86-0.9 4.54-2.3 6.85-4.22 1.31-1.08 1.31-1.08 2.64-2.18 0.922-0.767 1.84-1.53 2.79-2.32 1.92-1.56 3.83-3.13 5.75-4.69 0.909-0.748 1.82-1.5 2.75-2.27 1.5-1.23 3-2.45 4.52-3.66 1.36-1.09 2.67-2.23 3.97-3.39v-2c0.99-0.33 1.98-0.66 3-1v-2h2c1.74-1.65 1.74-1.65 3.5-3.75 0.608-0.696 1.22-1.39 1.84-2.11 1.54-1.99 2.63-3.86 3.66-6.14h2c0.103-0.639 0.206-1.28 0.312-1.94 0.227-0.681 0.454-1.36 0.688-2.06 0.99-0.33 1.98-0.66 3-1 0.33-0.825 0.66-1.65 1-2.5 0.33-0.825 0.66-1.65 1-2.5 0.99-0.33 1.98-0.66 3-1 1.01-1.66 2-3.33 2.92-5.04 1.38-2.49 2.97-4.8 4.58-7.14 7.99-11.6 14.4-23.7 19.5-36.8 0.503-1.22 0.503-1.22 1.02-2.47 1.02-2.5 2.01-5.01 2.98-7.53 0.391-1 0.781-2 1.18-3.03 5.43-14.5 9.02-29.3 10.5-44.7 0.359-3.31 0.359-3.31 1.36-6.31 1.26-8.49 1.15-17.1 1.13-25.6-0.00535-2.22-3.1e-5 -4.44 0.00635-6.67 0.0074-12-0.434-23.7-2.95-35.4-0.175-0.844-0.35-1.69-0.531-2.56-4.25-21.2-4.25-21.2-11.6-41.4-1.11-2.51-2.01-5.05-2.9-7.65-2.2-6.17-5.07-11.9-8.12-17.7-0.712-1.36-0.712-1.36-1.44-2.75-2.79-5.23-5.75-10.4-8.81-15.4-0.665-1.11-1.33-2.21-2.02-3.36-0.572-0.811-1.14-1.62-1.73-2.46h-2l-0.348-1.77c-0.701-2.4-1.63-3.96-3.09-5.98-0.648-0.92-0.648-0.92-1.31-1.86-0.414-0.459-0.828-0.918-1.25-1.39h-2c-0.227-0.516-0.454-1.03-0.688-1.56-1.79-3.33-3.81-6.58-6.31-9.44h-2c-0.33-0.99-0.66-1.98-1-3h-2c-0.34-0.835-0.34-0.835-0.688-1.69-1.69-2.97-3.84-4.96-6.31-7.31-0.887-0.928-1.77-1.86-2.69-2.81-2.02-2.42-2.02-2.42-4.31-2.19v-2c-1.73-1.61-3.54-3.14-5.38-4.62l-3.02-2.48c-2.33-2.09-2.33-2.09-4.6-1.9v-2c-1.4-1.29-1.4-1.29-3.26-2.54-0.701-0.494-1.4-0.989-2.12-1.5-0.76-0.524-1.52-1.05-2.3-1.59-0.769-0.536-1.54-1.07-2.33-1.62-13.6-10.6-13.6-10.6-29-15.8v-2c-1.98-0.33-3.96-0.66-6-1v-2c-8.14-2.67-16.1-5.19-24.5-6.54-3.24-0.609-6.26-1.65-9.36-2.74-8.1-2.79-16.7-4.13-25.1-5.72-1.04-0.199-2.08-0.397-3.16-0.602-14.8-2.55-30-2.63-44.9-2.36z" fill="#000100"/>
<path transform="translate(436,597)" d="m0 0c3.16 3.87 3.99 8.41 5 13.2 0.339 1.52 0.68 3.04 1.02 4.57 0.165 0.731 0.329 1.46 0.499 2.22 0.958 4.07 2.22 8.04 3.48 12 0.351 1.26 0.701 2.52 1.06 3.81 0.844 3.09 0.844 3.09 1.94 5.56 0.852 2.24 1.39 4.23 1.88 6.56 1.09 5.17 2.57 10.2 4.05 15.3 1.45 5.08 2.8 10.2 4.15 15.3 1.67 6.52 1.67 6.52 3.93 12.8 0.87 2.28 1.41 4.34 1.91 6.72 1.03 4.73 2.28 9.38 3.59 14 0.213 0.759 0.425 1.52 0.645 2.3 0.615 2.19 1.23 4.38 1.86 6.57 0.499 1.78 0.499 1.78 1.01 3.59 1.05 3.62 2.21 7.2 3.37 10.8 2.07 6.47 3.69 13 5.17 19.6 1.15 5.02 2.71 9.73 4.58 14.5 1.18 3.35 1.82 6.72 2.45 10.2 0.745 3.96 1.8 7.79 3.37 11.5 1.3 3.4 2.15 6.87 3 10.4 0.349 1.43 0.7 2.86 1.05 4.29 0.171 0.696 0.342 1.39 0.518 2.11 1.08 4.35 2.28 8.67 3.49 13 0.311 1.1 0.621 2.21 0.941 3.35 1.07 3.69 2.21 7.36 3.37 11 7.79 24.8 7.79 24.8 9.23 33.4 0.633 3.15 1.55 6.19 2.46 9.27 0.187 0.636 0.374 1.27 0.566 1.93 0.601 2.05 1.2 4.09 1.81 6.13 1.93 6.53 3.8 13.1 5.66 19.6 0.939 3.23 1.94 6.43 2.96 9.63 1.81 5.8 3.21 11.7 4.57 17.6 1.25 5.45 2.75 10.8 4.43 16.1 0.667 2.33 1.33 4.67 2 7 0.456 1.51 0.913 3.01 1.37 4.52 1.66 5.53 3.19 11.1 4.69 16.7 2.53 10.2 2.53 10.2 5.94 20.2 0.852 2.24 1.39 4.23 1.88 6.56 1.37 6.45 3.28 12.7 5.12 19.1 0.667 2.35 1.33 4.71 2 7.06 1.31 4.61 2.69 9.18 4.12 13.8 1.31 4.22 2.42 8.4 3.3 12.7 1.04 4.47 2.43 8.84 3.77 13.2 0.725 2.91 0.973 5.25 0.805 8.23h2c0.121 0.641 0.242 1.28 0.367 1.94 1.67 8.8 1.67 8.8 4.58 17.2 1.35 3.59 2.12 7.26 2.93 11 1.31 5.87 2.86 11.3 5.39 16.8 0.734 1.98 0.734 1.98 0.734 5.98-0.834 0.254-1.67 0.508-2.53 0.77-7.55 2.3-7.55 2.3-15 4.79-4.48 1.52-9.04 2.63-13.6 3.75-4.16 1.02-8.27 2.06-12.2 3.69-6.37 2.49-12.8 3.4-19.6 4-2.2-6.37-4.12-12.8-5.94-19.3-0.793-2.78-1.61-5.54-2.44-8.31-1.91-6.35-3.74-12.7-5.56-19.1-0.353-1.24-0.707-2.47-1.07-3.75-2.14-7.51-4.23-15-6.2-22.6-1.38-5.2-2.89-10.3-4.54-15.5-2.42-7.54-4.48-15.1-6.34-22.8-1.21-4.93-2.54-9.82-3.91-14.7-0.309-1.13-0.619-2.27-0.938-3.44-0.943-3.16-1.99-6.26-3.06-9.38-1.55-4.58-2.7-9.07-3.51-13.8-0.466-2.45-0.466-2.45-1.43-5.15-1.21-3.63-2.11-7.3-3-11-1.26-5.15-2.64-10.2-4.41-15.2-0.941-2.91-1.54-5.88-2.12-8.88-0.478-2.17-0.478-2.17-1.41-4.27-1.66-4.28-2.75-8.69-3.93-13.1-1.82-6.77-3.68-13.5-5.69-20.2-1.86-6.25-3.61-12.5-5.31-18.8-4.8-17.8-9.86-35.5-15.2-53.1-0.953-3.42-1.73-6.83-2.48-10.3-0.879-3.87-1.95-7.69-3.03-11.5-0.213-0.768-0.425-1.54-0.645-2.33-0.903-3.23-1.84-6.43-2.9-9.62-1.06-3.18-1.92-6.38-2.77-9.62-1.57-5.95-3.17-11.9-4.81-17.8-0.309-1.12-0.309-1.12-0.624-2.27-1.37-4.93-2.76-9.83-4.76-14.6-1.28-3.38-2.03-6.84-2.8-10.4-1.36-6.01-2.91-11.9-4.69-17.8-2.09-6.9-3.91-13.8-5.61-20.9-1.63-6.61-1.63-6.61-3.89-13-2.17-5.57-3.24-11.5-4.44-17.4-0.526-2.23-0.526-2.23-1.51-4.5-1.01-2.56-1.8-5.08-2.54-7.72-0.274-0.979-0.547-1.96-0.829-2.97-0.29-1.05-0.579-2.1-0.878-3.18-0.455-1.63-0.455-1.63-0.919-3.3-1.64-5.92-3.25-11.8-4.84-17.8-0.313-1.17-0.626-2.34-0.948-3.55-0.602-2.26-1.2-4.52-1.8-6.78-0.274-1.03-0.547-2.06-0.829-3.12-0.238-0.904-0.476-1.81-0.722-2.74-0.717-2.59-0.717-2.59-1.84-5.12-1.35-3.6-1.04-6.61-0.915-10.4 0.593-0.161 1.19-0.322 1.8-0.487 10.4-2.82 20.8-5.65 31.2-8.65 2.92-0.83 5.85-1.6 8.79-2.36 4.53-1.21 8.77-2.84 13.1-4.73 2.19-0.77 2.19-0.77 6.19-0.77z" fill="#000100"/>
<path transform="translate(831,606)" d="m0 0c2.54 2.54 2.24 4.13 2.26 7.59-0.00497 0.789-0.00994 1.58-0.0151 2.39 0.00261 0.838 0.00521 1.68 0.0079 2.54 0.00635 2.84-0.00169 5.68-0.00955 8.52 0.00159 2.04 0.00405 4.09 0.00732 6.13 0.00644 5.64 3.22e-4 11.3-0.00776 16.9-0.00656 6.08-0.00163 12.2 0.00188 18.2 0.00447 10.5 0.00155 21.1-0.00665 31.6-0.00861 11.1-0.0135 22.2-0.0133 33.2 7.65e-6 0.689 1.53e-5 1.38 2.32e-5 2.09 4.09e-5 2.8 1.07e-4 5.59 2.06e-4 8.39 9.07e-4 26.3-0.00905 52.5-0.0244 78.8-0.0136 23.3-0.0199 46.6-0.0192 69.9 4.04e-5 1.49 8.08e-5 2.98 1.21e-4 4.48 2.04e-5 0.738 4.07e-5 1.48 6.17e-5 2.24 1.01e-4 3.71 1.91e-4 7.43 2.7e-4 11.1 1.67e-5 0.733 3.34e-5 1.47 5.06e-5 2.22 3.66e-4 19.5-0.00419 39-0.0104 58.5-2.2e-4 0.695-4.41e-4 1.39-6.67e-4 2.11-8.88e-4 2.79-0.00178 5.59-0.00269 8.38-0.00315 9.68-0.00467 19.4-0.00511 29-6.01e-4 12.5-0.00478 25-0.0144 37.5-0.00458 6.02-0.00768 12-0.00641 18.1 0.0067 41.5 0.0067 41.5-0.593 58.9-0.058 1.69-0.058 1.69-0.117 3.4-0.302 7.32-0.302 7.32-1.44 10.7h-64c-1.15-32.2-1.15-32.2-1.13-48.2-0.00116-1.85-0.00275-3.7-0.00473-5.56-0.0041-4.99-0.00215-9.98 9.86e-4 -15 0.00229-5.42-0.00124-10.8-0.00398-16.3-0.00442-10.6-0.0035-21.2-5.87e-4 -31.8 0.00227-8.63 0.00256-17.3 0.00148-25.9-1.53e-4 -1.24-3.06e-4 -2.47-4.64e-4 -3.75-3.2e-4 -2.51-6.44e-4 -5.02-9.73e-4 -7.54-0.00276-22.8 8.9e-5 -45.7 0.00534-68.5 0.00473-20.7 0.00431-41.4-4.61e-4 -62.1-0.00539-23.4-0.00744-46.8-0.00439-70.2 3.18e-4 -2.51 6.33e-4 -5.02 9.43e-4 -7.53 1.54e-4 -1.23 3.09e-4 -2.47 4.68e-4 -3.74 8.54e-4 -8.58-5.73e-4 -17.2-0.00295-25.8-0.00285-10.5-0.00196-21 0.00328-31.6 0.00258-5.34 0.00375-10.7 3.51e-4 -16-0.0179-30.6 0.436-61.1 1.13-91.7 2.32-1.16 3.61-1.12 6.18-1.1 1.3 0.00495 1.3 0.00495 2.62 0.01 0.939 0.0083 1.88 0.0166 2.85 0.0251 1.45 0.00568 1.45 0.00568 2.94 0.0115 4.15 0.0163 8.31 0.0442 12.5 0.0715 3.03 0.0183 6.07 0.0303 9.1 0.042 0.921 0.0083 1.84 0.0166 2.79 0.0251 5.61 0.0207 11.1-0.283 16.7-0.853 2.82-0.279 5.54-0.453 8.37-0.235z" fill="#000100"/>
<path transform="translate(1255 1150)" d="m0 0c1.11 0.00444 2.23 0.00888 3.38 0.0135 1.89 2.27e-4 1.89 2.27e-4 3.82 4.58e-4 1.38 0.0102 2.76 0.0206 4.14 0.0313 1.41 0.00373 2.82 0.00658 4.23 0.00858 3.71 0.00764 7.42 0.0273 11.1 0.0494 3.79 0.0204 7.57 0.0296 11.4 0.0397 7.43 0.0215 14.9 0.0556 22.3 0.0977 1.65 3.3 1.12 6.96 1.1 10.6-0.00146 0.888-0.00292 1.78-0.00443 2.69-0.00381 1.93-0.00993 3.87-0.0181 5.8-0.0127 3.06-0.0193 6.12-0.0241 9.18-0.0134 7.6-0.0375 15.2-0.0614 22.8-0.0197 6.42-0.0354 12.8-0.0456 19.3-0.00648 3.01-0.019 6.02-0.0317 9.04-0.00363 1.85-0.00699 3.71-0.01 5.56-0.00775 1.25-0.00775 1.25-0.0157 2.53-3.89e-4 4.3 0.252 8.32 1.11 12.6 8.27 0.0309 16.5 0.0501 24.8 0.0625 1.23 0.00194 2.47 0.00389 3.74 0.00589 19 0.0208 37.9-0.215 56.9-0.801 0.852-0.0248 1.7-0.0495 2.58-0.075 1.58-0.0465 3.16-0.0974 4.74-0.154 1.75-0.0514 3.51-0.0511 5.26-0.0392 1 1 1 1 1.12 3.55-0.00222 1.13-0.00444 2.27-0.00673 3.44-7.55e-5 1.28-1.51e-4 2.56-2.29e-4 3.88-0.00511 1.41-0.0103 2.82-0.0156 4.23-0.00186 1.43-0.00329 2.87-0.00429 4.3-0.00382 3.78-0.0137 7.56-0.0247 11.3-0.0102 3.85-0.0148 7.71-0.0198 11.6-0.0107 7.57-0.0278 15.1-0.0488 22.7-4.74 2.43-9.1 2.27-14.3 2.23-0.942 2.41e-4 -1.88 4.82e-4 -2.86 7.31e-4 -3.04-0.00149-6.08-0.0167-9.13-0.0325-1.88-0.00294-3.76-0.00498-5.64-0.0061-6.97-0.0105-13.9-0.0384-20.9-0.0642-15.6-0.0412-31.1-0.0825-47.2-0.125v98c-7.88 2.25-7.88 2.25-12.7 2.27-1.6 0.0143-1.6 0.0143-3.23 0.0289-1.13-9.11e-4 -2.26-0.00182-3.42-0.00276-1.77 0.00643-1.77 0.00643-3.57 0.013-2.48 0.00573-4.96 0.00626-7.44 0.00191-3.79-0.00317-7.59 0.0204-11.4 0.0457-2.41 0.00227-4.83 0.00298-7.24 0.00195-1.13 0.00921-2.27 0.0184-3.43 0.0279-1.59-0.00934-1.59-0.00934-3.21-0.0189-0.927 6.29e-4 -1.85 0.00126-2.81 0.00191-3.41-0.49-5.06-0.991-7.6-3.37-0.742-3.1-0.631-6.16-0.568-9.34-7.3e-4 -0.956-0.00146-1.91-0.00221-2.9 0.00349-3.17 0.0424-6.33 0.0816-9.5 0.00932-2.19 0.0164-4.39 0.0214-6.58 0.0191-5.78 0.0682-11.6 0.124-17.3 0.0511-5.89 0.074-11.8 0.0992-17.7 0.0536-11.6 0.139-23.1 0.244-34.7-0.989 0.044-0.989 0.044-2 0.0888-19.1 0.826-38.3 1.1-57.4 1.1-3.93-1.04e-4 -7.86 0.0138-11.8 0.0308-3.06 0.0111-6.13 0.0131-9.19 0.0126-1.45 0.00118-2.9 0.00557-4.36 0.0133-2 0.00976-4.01 0.00567-6.01 8.95e-4 -1.13 0.00143-2.27 0.00285-3.44 0.00432-2.79-0.247-2.79-0.247-5.79-2.25-0.374-2.58-0.374-2.58-0.372-5.89-0.00623-1.23-0.0125-2.47-0.0189-3.74 0.00869-1.35 0.018-2.71 0.0279-4.06 5.18e-4 -1.38 1.27e-6 -2.76-0.00151-4.15 8.98e-5 -2.9 0.0105-5.8 0.0286-8.7 0.0227-3.72 0.0232-7.44 0.0165-11.2-0.00334-2.85 0.00329-5.71 0.0131-8.56 0.00385-1.37 5e-3 -2.74 0.00341-4.11-3.7e-4 -1.92 0.0137-3.83 0.0285-5.75 0.00461-1.09 0.00921-2.18 0.014-3.31 0.261-2.58 0.261-2.58 2.26-4.58 3.1-0.188 6.12-0.252 9.22-0.227 1.43-4.38e-4 1.43-4.38e-4 2.9-8.85e-4 3.17 0.0014 6.34 0.017 9.51 0.0326 2.19 0.00373 4.39 0.00658 6.58 0.00858 5.78 0.00765 11.6 0.0273 17.4 0.0494 5.9 0.0204 11.8 0.0296 17.7 0.0397 11.6 0.0215 23.2 0.0556 34.7 0.0977-0.00444-1.22-0.00888-2.45-0.0135-3.71-0.0405-11.5-0.0705-23-0.0902-34.5-0.0105-5.92-0.0246-11.8-0.0473-17.7-0.0217-5.71-0.0337-11.4-0.0389-17.1-0.00371-2.18-0.0109-4.36-0.0217-6.54-0.0144-3.05-0.0165-6.09-0.0156-9.14-0.00719-0.909-0.0144-1.82-0.0218-2.76 0.0275-8.27 0.0275-8.27 4.88-8.71z" fill="#000100"/>
<path transform="translate(1161,599)" d="m0 0c5.02 0.519 9.2 1.38 14 3 2.93 0.812 5.87 1.56 8.81 2.31 6.44 1.66 12.8 3.45 19.2 5.38 6.27 1.89 12.5 3.37 19 4.31 1.22 5.02 0.601 8.93-0.75 13.8-0.28 1.06-0.28 1.06-0.566 2.15-1.17 4.37-2.48 8.67-3.98 12.9-1.97 5.84-3.38 11.9-4.94 17.8-0.219 0.839-0.439 1.68-0.665 2.54-0.437 1.67-0.871 3.35-1.3 5.02-1.12 4.3-2.36 8.52-3.8 12.7-2.05 6.8-3.91 13.7-5.75 20.5-0.309 1.16-0.618 2.31-0.937 3.51-0.621 2.33-1.24 4.66-1.85 7-0.289 1.09-0.578 2.17-0.876 3.29-0.386 1.46-0.386 1.46-0.78 2.95-0.785 2.66-1.77 5.16-2.81 7.73-0.367 1.34-0.702 2.68-1 4.03-0.165 0.728-0.33 1.46-0.5 2.21-0.165 0.746-0.33 1.49-0.5 2.26-1.04 4.7-2.21 9.03-4 13.5-0.745 2.79-1.37 5.61-2 8.44-1.11 4.96-2.36 9.74-4 14.6-0.498 1.93-0.977 3.87-1.44 5.81-1.08 4.39-2.33 8.63-3.81 12.9-1.15 3.5-2.07 7.05-3.01 10.6-0.496 1.78-1.05 3.54-1.65 5.29-1.92 5.94-3.35 12-4.89 18.1-0.255 0.995-0.51 1.99-0.773 3.01-0.228 0.899-0.456 1.8-0.691 2.72-0.755 2.61-1.72 5.07-2.75 7.58-0.593 2.26-1.15 4.54-1.69 6.81-1.72 7.13-3.73 14.2-5.81 21.2-2.06 6.95-4.05 13.9-5.75 20.9-1.14 4.68-2.37 9.24-3.96 13.8-3.8 10.9-3.8 10.9-5.79 22.3h-2c-0.0374 0.617-0.0748 1.23-0.113 1.87-0.396 5.1-1.19 9.52-2.93 14.3-1.58 4.66-2.8 9.42-4.06 14.2-1.36 5.01-3 9.81-4.89 14.6-5.12-0.627-9.97-1.7-14.9-3.11-0.746-0.209-1.49-0.417-2.26-0.632-2.38-0.665-4.75-1.34-7.12-2.01-1.55-0.435-3.1-0.87-4.65-1.3-2.32-0.651-4.64-1.3-6.97-1.96-4.07-1.15-8.14-2.28-12.2-3.4-0.831-0.228-1.66-0.455-2.52-0.69-1.6-0.437-3.2-0.872-4.8-1.3-5.43-1.49-5.43-1.49-6.54-2.6 0.311-6.32 1.78-11.5 3.89-17.5 1.59-5.03 2.66-10.1 3.72-15.3 0.823-3.94 1.78-7.53 3.4-11.2 1.39-4.52 2.49-9.06 3.44-13.7 0.562-2.31 0.562-2.31 1.43-4.84 1.65-5.05 2.93-10.2 4.26-15.3 0.277-1.07 0.554-2.14 0.84-3.24 0.68-2.63 1.36-5.25 2.04-7.88h2c0.049-0.652 0.098-1.3 0.148-1.98 0.0748-0.874 0.15-1.75 0.227-2.65 0.0696-0.859 0.139-1.72 0.211-2.6 0.464-3.11 1.38-5.81 2.41-8.77 0.86-2.8 1.68-5.62 2.5-8.44 0.213-0.725 0.425-1.45 0.645-2.2 0.421-1.44 0.84-2.87 1.26-4.31 0.558-1.92 1.12-3.83 1.68-5.75 0.804-2.91 1.47-5.78 2.04-8.74 0.168-0.865 0.335-1.73 0.508-2.62 0.121-0.641 0.242-1.28 0.367-1.94h2c0.0374-0.617 0.0748-1.23 0.113-1.87 0.0657-0.847 0.131-1.69 0.199-2.57 0.058-0.824 0.116-1.65 0.176-2.5 0.565-3.39 1.58-6.41 2.71-9.65 1.33-3.98 2.33-8.04 3.37-12.1 1.32-5.18 2.73-10.2 4.44-15.3 0.641-2.35 1.26-4.7 1.88-7.06 1.84-7.04 3.95-14 6.12-20.9 1.71-5.61 2.91-11.2 4-17h2c0.0374-0.69 0.0748-1.38 0.113-2.09 0.383-5.48 1.1-10.3 3-15.5 1.84-5.08 3.32-10.3 4.89-15.5 0.557-1.83 0.557-1.83 1.12-3.69 1.16-4.4 2.03-8.84 2.88-13.3h2c0.0825-1.22 0.165-2.43 0.25-3.69 0.693-6.36 2.78-12.3 4.75-18.3 1.36-4.54 2.48-9.06 3.44-13.7 0.69-2.83 1.63-5.55 2.56-8.31 0.857-2.76 1.68-5.54 2.5-8.31 0.333-1.13 0.333-1.13 0.673-2.27 1.14-3.91 2.19-7.8 3.01-11.8 0.812-3.62 0.812-3.62 2.81-6.62z" fill="#000100"/>
</svg>
