<?xml version="1.0" encoding="UTF-8"?>
<svg version="1.1" viewBox="0 0 1600 1128" width="1280" height="1280" xmlns="http://www.w3.org/2000/svg">
<path transform="translate(0)" d="m0 0h1600v1128h-1600v-1128z" fill="#FAFEFE"/>
<path transform="translate(888 240)" d="m0 0c3.98 1.5 8.02 2.86 12 4.25 10.4 3.63 20.3 7.52 30.1 12.6 1.52 0.743 1.52 0.743 3.06 1.5 7.51 3.83 14.7 8.13 21.9 12.5 0.839 0.5 1.68 1 2.54 1.52 7.09 4.28 13.7 9.11 20.3 14.1 2.12 1.61 4.25 3.2 6.39 4.77 1.05 0.775 2.1 1.55 3.18 2.35 0.947 0.696 1.89 1.39 2.87 2.11 2.78 2.21 5.2 4.62 7.69 7.14 0.66 0.33 1.32 0.66 2 1v2c0.866 0.371 0.866 0.371 1.75 0.75 2.59 1.44 4.22 3.09 6.25 5.25 0.784 0.763 1.57 1.53 2.38 2.31 8.62 8.83 8.62 8.83 8.62 11.7 0.562 0.217 1.12 0.433 1.7 0.656 3.07 1.79 4.82 4.08 7.05 6.84 0.799 0.98 1.6 1.96 2.42 2.97 1.83 2.53 1.83 2.53 1.83 4.53h2c0.938 1.32 1.86 2.65 2.73 4.02 3.25 5.08 6.7 10.1 10.5 14.7 2.02 2.6 3.28 5.31 4.75 8.25 0.814 1.18 1.65 2.35 2.5 3.5 2.22 3.03 3.9 6.09 5.5 9.5 0.835 1.58 0.835 1.58 1.69 3.19 1.31 2.81 1.31 2.81 1.31 5.81h2c0.326 0.785 0.652 1.57 0.988 2.38 2.76 6.63 2.76 6.63 5.57 13.2 1.52 3.57 2.97 7.16 4.39 10.8 0.697 1.75 1.4 3.49 2.12 5.23 1.55 3.78 3.03 7.5 4.11 11.4 0.516 2.81 0.516 2.81 1.81 3.94 1.73 0.264 3.48 0.468 5.22 0.648 1.09 0.117 2.18 0.233 3.3 0.354 1.17 0.123 2.34 0.246 3.54 0.373 26.4 2.93 26.4 2.93 38.9 7.62 1.11 0.383 2.22 0.766 3.37 1.16 5.72 1.98 11.2 4.04 16.6 6.8 2.05 1.03 4.12 1.99 6.21 2.93 8.22 3.72 15.6 7.62 22.9 13.1 1.03 0.681 2.06 1.36 3.12 2.06 9.49 6.4 17.9 13.8 25.9 21.9 0.887 0.887 1.77 1.77 2.69 2.69 0.763 0.763 1.53 1.53 2.31 2.31 0.763 0.722 1.53 1.44 2.31 2.19 1.69 1.81 1.69 1.81 1.69 3.81 0.839 0.294 0.839 0.294 1.7 0.594 3.25 1.98 5.06 4.82 7.18 7.91 0.44 0.629 0.88 1.26 1.33 1.9 2.96 4.27 5.75 8.62 8.34 13.1 1.23 2.1 2.52 4.14 3.84 6.2 2.71 4.32 4.95 8.79 7.11 13.4 0.389 0.827 0.779 1.65 1.18 2.51 3.24 6.99 5.93 14 8.32 21.4 0.358 1.03 0.358 1.03 0.723 2.08 1.83 5.29 3.25 10.6 4.4 16 0.172 0.815 0.345 1.63 0.523 2.47 1.32 6.54 1.93 12.9 2.18 19.6-0.0107 2.76-0.0107 2.76 1.18 4.81 0.0972 1.97 0.131 3.95 0.133 5.93 0.00129 1.19 0.00258 2.38 0.00391 3.6-0.00387 1.25-0.00773 2.5-0.0117 3.78 0.00387 1.24 0.00773 2.47 0.0117 3.75-0.00129 1.19-0.00258 2.39-0.00391 3.62-0.00169 1.64-0.00169 1.64-0.00342 3.31-0.12 2.8-0.522 5.28-1.13 8.01-0.241 1.57-0.468 3.15-0.684 4.73-0.123 0.886-0.246 1.77-0.373 2.69-0.251 1.83-0.501 3.66-0.75 5.48-0.636 4.57-1.33 9.12-2.17 13.7-0.148 0.807-0.297 1.61-0.449 2.45-0.578 2-0.578 2-2.58 4-0.568 2.32-1.06 4.66-1.5 7-1.28 6.78-1.28 6.78-3.5 9-0.753 1.93-0.753 1.93-1.38 4.12-1.24 3.92-2.81 7.44-4.71 11.1-1.13 2.21-2.05 4.48-2.92 6.8h-2c-0.227 0.804-0.454 1.61-0.688 2.44-3.25 8.81-8.7 16.1-14.3 23.6-0.534 0.767-1.07 1.53-1.62 2.32-0.684 0.83-0.684 0.83-1.38 1.68h-2c-0.087 0.826-0.087 0.826-0.176 1.67-1.17 3.32-3.5 5.29-6.01 7.64-3.28 3.16-6.45 6.32-9.31 9.88-0.825 0.928-1.65 1.86-2.5 2.81h-3c-0.103 0.639-0.206 1.28-0.312 1.94-0.227 0.681-0.454 1.36-0.688 2.06-0.99 0.33-1.98 0.66-3 1-0.66 0.99-1.32 1.98-2 3-1.64 1.04-3.31 2.03-5 3-1.83 1.29-3.64 2.61-5.44 3.94-0.963 0.703-1.93 1.41-2.92 2.13-1.49 1.09-2.97 2.17-4.45 3.27-2.69 1.92-4.78 2.82-8.01 3.72-1.05 0.309-2.1 0.619-3.19 0.938-0.33 0.99-0.66 1.98-1 3-1.71 1.03-1.71 1.03-3.94 1.94-0.811 0.338-1.62 0.675-2.46 1.02-0.86 0.343-1.72 0.686-2.61 1.04-1.27 0.514-1.27 0.514-2.57 1.04-1.69 0.678-3.38 1.35-5.07 2.02-2.05 0.821-4.08 1.68-6.1 2.57-3.06 1.29-6.09 2.36-9.25 3.38-0.668 0.237-1.34 0.474-2.02 0.719-4.84 1.7-9.6 2.88-14.6 3.81-2.53 0.466-2.53 0.466-5.7 1.53-9.52 2.46-19.7 2.09-29.4 2.13-1.34 0.00797-2.68 0.0164-4.02 0.0251-2.85 0.0179-5.71 0.033-8.56 0.0458-4.51 0.0204-9.03 0.048-13.5 0.0767-10.4 0.0648-20.8 0.121-31.1 0.176-9.55 0.0509-19.1 0.104-28.6 0.165-4.49 0.0283-8.98 0.0519-13.5 0.0719-2.11 0.0101-4.23 0.0225-6.34 0.0359-2.58 0.0164-5.16 0.0291-7.74 0.0378-1.13 0.00834-2.26 0.0167-3.42 0.0253-0.985 0.00515-1.97 0.0103-2.99 0.0156-2.36-0.0169-2.36-0.0169-4.34 1.14-3.6 0.241-7.21 0.185-10.8 0.188-0.998 0.0122-2 0.0245-3.03 0.0371-1.45 0.0029-1.45 0.0029-2.93 0.00586-0.883 0.00411-1.77 0.00822-2.68 0.0125-2.85-0.271-4.94-1.1-7.56-2.24-1.26-0.351-2.52-0.701-3.81-1.06-5.44-2-8.86-6.35-12.2-10.9-2.48-7.44-2.12-16.7 1.25-23.8 1.82-3.36 3.27-4.68 6.75-6.19 0.712-0.743 0.712-0.743 1.44-1.5 6.67-6.4 19.5-4.63 27.9-4.6 1.34 0.00192 2.68 0.00338 4.01 0.00443 2.87 0.00315 5.73 0.00939 8.6 0.0181 4.53 0.0136 9.06 0.0194 13.6 0.0241 9.61 0.0111 19.2 0.0306 28.8 0.051 10.4 0.022 20.8 0.0426 31.2 0.0534 4.51 0.00499 9.01 0.0149 13.5 0.0284 2.12 0.00565 4.25 0.00903 6.37 0.0114 2.59 0.00288 5.18 0.00939 7.78 0.0201 1.7 1.06e-4 1.7 1.06e-4 3.44 2.14e-4 1.49 0.00333 1.49 0.00333 3 0.00673 2.37 0.0359 2.37 0.0359 4.35-1.12 1.94-0.199 3.88-0.345 5.82-0.465l3.56-0.236c2.47-0.156 4.94-0.31 7.41-0.461 6.33-0.424 12.1-1.04 18.2-2.84 1.39-0.384 2.79-0.766 4.18-1.15 7.55-2.16 14.7-4.48 21.8-7.85h2v-2c1.16-0.557 2.31-1.11 3.5-1.69 3.79-1.88 7.31-4.03 10.8-6.36 1.66-0.953 1.66-0.953 3.66-0.953v-2c1.86-1.4 1.86-1.4 4.31-2.94 2.9-1.83 5.32-3.58 7.69-6.06 1.39-1.11 1.39-1.11 2.81-2.25 3.51-2.91 6.3-6.23 9.19-9.75 0.669-0.758 1.34-1.52 2.03-2.3 24.2-28.1 35-65.7 32.7-102-1.14-14.9-4.19-29.4-9.72-43.4-0.524-1.35-0.524-1.35-1.06-2.72-6.15-14.9-15.6-28.5-26.3-40.4-1.38-1.57-2.68-3.21-3.95-4.87-3.61-4.34-8.23-7.59-12.7-11l-3-2.34c-5.78-4.44-11.5-8.38-18-11.7-0.936-0.492-1.87-0.985-2.84-1.49-5.9-3.05-11.8-5.61-18.1-7.75-2.08-0.762-2.08-0.762-3.08-1.76-3.29-0.539-6.59-0.966-9.9-1.4-3.1-0.598-3.1-0.598-6.1-2.6-2.09-0.348-2.09-0.348-4.38-0.379-0.839-0.0342-1.68-0.0683-2.54-0.104-0.872-0.0264-1.74-0.0529-2.64-0.0801-1.73-0.0599-3.46-0.123-5.19-0.191-0.766-0.0239-1.53-0.0479-2.32-0.0725-1.92-0.174-1.92-0.174-3.92-1.17-1.64-0.0959-3.29-0.13-4.94-0.125-0.875-0.00258-1.75-0.00516-2.65-0.00781-2.55 0.0346-2.55 0.0346-5.41 1.13-2.34-0.309-4.67-0.645-7-1-0.928 0.103-1.86 0.206-2.81 0.312-6.23-0.61-11.2-4.8-16.1-8.5-5.36-7.09-6.69-16-8.41-24.6-0.88-3.97-2.18-7.46-3.71-11.2-0.488-1.48-0.966-2.96-1.44-4.44-1.54-4.68-3.51-9.09-5.56-13.6-0.335-0.773-0.67-1.55-1.02-2.34-5.78-13.2-12.4-26.1-21-37.7-1.16-1.66-2.3-3.32-3.44-5-0.494-0.722-0.987-1.44-1.5-2.19-1.07-1.81-1.07-1.81-1.07-3.81-0.99-0.33-1.98-0.66-3-1-1.37-1.97-2.7-3.98-4-6l-1.75-1.75c-0.413-0.413-0.825-0.825-1.25-1.25v-2h-2c-1.48-1.5-1.48-1.5-3.19-3.56-3.42-4.02-7.04-7.74-10.8-11.4-0.763-0.784-1.53-1.57-2.31-2.38-10.6-10.4-22.1-19.6-34.7-27.6-0.873-0.563-1.75-1.13-2.64-1.71-2.77-1.78-5.56-3.54-8.36-5.29-0.813-0.517-1.63-1.03-2.46-1.57-6.58-4.09-13.5-7.31-20.5-10.4-0.728-0.321-1.46-0.642-2.21-0.973-1.59-0.69-3.19-1.36-4.79-2.03-0.784-0.33-1.57-0.66-2.38-1-6.84-2.61-13.7-4.57-20.8-6.16-2.8-0.844-2.8-0.844-5.02-2.34-4.11-2.23-8.3-2.51-12.9-3.07-1.8-0.223-3.59-0.454-5.38-0.691-0.79-0.0961-1.58-0.192-2.4-0.291-2.1-0.455-2.1-0.455-5.1-2.45-2.98-0.496-5.87-0.857-8.88-1.12-1.4-0.126-1.4-0.126-2.83-0.255-9.82-0.765-19.6-0.808-29.5-0.807-1.2-0.00136-1.2-0.00136-2.42-0.00275-14.9-0.432-14.9-0.432-29.4 2.19-1.37 0.174-2.75 0.317-4.12 0.438-3.97 0.404-7.73 1.17-11.6 2.09-3.12 0.643-6.25 0.901-9.43 1.12-2.09 0.208-2.09 0.208-3.85 2.34-0.887-0.0206-1.77-0.0412-2.69-0.0625-4.03 0.0761-6.66 1.4-10.3 3.06-0.804 0.144-1.61 0.289-2.44 0.438-2.45 0.538-4.05 1.27-6.25 2.44-3.04 1.59-5.95 2.69-9.25 3.62-11.7 3.34-22.2 9.69-32.5 16-3.64 2.15-7.37 4.14-11.1 6.12-2.47 1.34-2.47 1.34-4.64 3.07-1.8 1.32-1.8 1.32-3.8 1.32-0.33 0.99-0.66 1.98-1 3-1.75 1.36-1.75 1.36-4 2.75-6.97 4.47-13.2 9.35-19 15.2-1.37 1.35-2.74 2.69-4.11 4.04-13.5 12.3-13.5 12.3-23.9 27.1-1.06 2.09-2.3 3.27-3.97 4.9-1.05 1.48-2.07 2.98-3.06 4.5l-1.54 2.34c-0.463 0.712-0.926 1.42-1.4 2.16-0.66 0.99-1.32 1.98-2 3h-2c-0.309 1.14-0.309 1.14-0.625 2.31-1.55 4.15-3.57 7.81-5.72 11.7-2.7 4.93-5.16 9.97-7.65 15-0.512 1.01-1.02 2.02-1.55 3.05-3.11 6.32-5.51 12.9-7.66 19.6-0.896 2.67-1.91 5.28-2.91 7.91-1.22 3.29-2.11 6.26-2.44 9.75-0.461 3.89-1.61 6.27-3.44 9.69-0.155 1.18-0.155 1.18-0.312 2.38-1.46 5.59-5.6 10.2-10.2 13.6-9.69 5.38-24.1 3.14-34.8 3.03-5.03-0.0426-9.77-0.0292-14.7 1.04-1.81 0.321-1.81 0.321-3.66 0.648-1.27 0.24-2.54 0.48-3.84 0.727l-3.84 0.711c-3.6 0.899-6.38 2.22-9.66 3.91-1.84 0.551-3.69 1.05-5.56 1.5-3.96 1.03-7.03 2.17-10.4 4.5l-6 3c-6 3.11-11.5 6.65-16.9 10.6-2.07 1.36-2.07 1.36-4.07 1.36l-2 4h-3c-0.254 0.593-0.508 1.19-0.77 1.8-1.37 2.45-2.75 3.7-4.92 5.45-8.38 7.11-15.9 16.2-21.3 25.8-0.83 1.31-1.66 2.63-2.5 3.94-6.62 10.6-11.1 22.1-14.5 34.1-0.955 3.4-1.91 6.75-3.12 10.1-0.938 3.15-0.945 5.67-0.875 8.94l-0.5 2.44c-0.618 2.73-0.618 2.73-0.5 6.25 0 3.31 0 3.31-1 5.31-0.0969 2.16-0.13 4.33-0.125 6.5-0.00258 1.17-0.00516 2.33-0.00781 3.53-0.072 2.9-0.072 2.9 1.13 4.97 0.0698 2.5-0.00273 4.99-0.0625 7.49 0.0589 2.36 0.42 4.25 1.06 6.51 0.144 0.928 0.289 1.86 0.438 2.81 0.616 3.49 1.58 6.78 2.56 10.2 0.319 1.52 0.631 3.04 0.938 4.56 0.827 3.85 2.24 6.94 4.06 10.4 0.309 1.16 0.619 2.31 0.938 3.5 1.15 3.78 2.83 6.26 5.06 9.5 0.708 1.67 1.41 3.35 2.1 5.03 4.08 8.97 9.99 19 17.9 25v2h2v2h2c1.45 1.5 1.45 1.5 3.12 3.56 7.97 9.27 17.5 15.2 27.9 21.4 0.862 0.519 1.72 1.04 2.61 1.57 5.87 3.4 12.1 5.93 18.4 8.43 0.723 0.289 1.45 0.578 2.19 0.875 1.92 0.747 3.86 1.45 5.81 2.12l2.22 0.777c6.21 2.03 12.4 2.99 18.9 3.79 2.91 0.43 2.91 0.43 4.91 1.43 2.2 0.156 4.4 0.248 6.6 0.312 0.687 0.0205 1.37 0.041 2.08 0.0621 2.31 0.0663 4.63 0.124 6.94 0.181 0.808 0.0209 1.62 0.0419 2.45 0.0634 20.2 0.516 40.5 0.535 60.7 0.512 5.23-0.00582 10.5-0.00232 15.7 0.00357 4.08 0.0036 8.16 0.00247 12.2-1.28e-4 1.93-6.64e-4 3.87 1.39e-4 5.8 0.00248 2.67 0.00254 5.34-0.00132 8.01-0.0069 0.784 0.00202 1.57 0.00405 2.38 0.00613 3.82-0.0148 7.34-0.248 11-1.14 11.9-0.998 25.3-1.06 35.4 6.06 6.44 7.38 9.52 14.1 9.02 24-1.02 6.59-4.62 10.5-9.46 15-0.42 0.518-0.84 1.04-1.27 1.57-2.45 2.03-4.66 2.14-7.79 2.55-4.11 0.484-4.11 0.484-7.94 1.88-2.51 0.0979-4.99 0.139-7.5 0.125-0.69 0.00387-1.38 0.00773-2.09 0.0117-5.16-0.0101-5.16-0.0101-7.41-1.14-1.86-0.103-3.72-0.142-5.58-0.151-1.19-0.00834-2.37-0.0167-3.6-0.0253-1.31-0.00418-2.62-0.00837-3.97-0.0127-1.39-0.00794-2.78-0.0163-4.16-0.0251-2.99-0.0181-5.99-0.0331-8.98-0.0458-4.74-0.0202-9.47-0.0479-14.2-0.0767-10.1-0.0601-20.1-0.112-30.2-0.163-10.8-0.0551-21.7-0.112-32.5-0.178-4.7-0.0283-9.41-0.0519-14.1-0.0719-2.93-0.0134-5.87-0.0308-8.8-0.0493-2-0.0114-4-0.018-6-0.0244-5.72-0.0397-11.2-0.156-16.9-1.18-1.37-0.15-2.75-0.296-4.12-0.438-3.88-0.562-3.88-0.562-6.28-1.54-2.69-1.06-5.12-1.53-7.97-1.96-4.59-0.786-8.4-2.07-12.6-4.06-1.22-0.454-2.43-0.908-3.69-1.38-1.44-0.541-2.88-1.08-4.31-1.62l-2.4-0.879c-15.1-5.87-29.9-14-42.6-24.1-1.35-0.981-2.71-1.96-4.06-2.94-4.89-3.69-9.65-7.67-13.9-12.1v-2l-1.69-0.688c-4-2.27-6.85-4.93-8.31-9.31-0.99-0.33-1.98-0.66-3-1-3-3.44-3-3.44-3-6h-2c-0.99-2.47-0.99-2.47-2-5h-2c-1.32-1.93-2.56-3.92-3.75-5.94-0.722-1.21-1.45-2.42-2.17-3.63-0.355-0.593-0.71-1.19-1.08-1.8-1.25-2.04-2.62-3.99-4-5.94-10.6-15.8-16.8-34.2-21.2-52.6-0.504-2.04-1.03-4.08-1.58-6.12-0.266-0.996-0.531-1.99-0.805-3.02-0.24-0.878-0.48-1.76-0.727-2.66-1.91-9.64-1.83-19.4-1.83-29.2-0.00218-2.27-0.0204-4.55-0.0393-6.82-0.0454-11.9 0.915-23.5 3.73-35.1 0.555-2.36 0.992-4.72 1.43-7.11 0.97-4.84 2.38-9.36 4.06-14 0.411-1.17 0.822-2.35 1.25-3.56 10.2-28.6 26.8-54.4 48.8-75.4 1.21-1.22 1.21-1.22 2.44-2.47 8.08-7.97 16.8-14.8 26.6-20.5 0.878-0.534 1.76-1.07 2.66-1.62 4.74-2.87 9.52-5.64 14.3-8.38l2.5-1.56c12.3-7.05 27.4-12.2 41.2-15 1.4-0.288 2.79-0.594 4.17-0.931 6.81-1.65 13.7-2.4 20.6-3.16 1.2-0.134 2.4-0.268 3.63-0.406 2.93-0.327 5.87-0.65 8.8-0.969 0.19-0.582 0.38-1.16 0.576-1.76 11.6-35.2 29.3-75.9 56.4-102 1.05-1.18 2.09-2.37 3.12-3.56 1.29-1.48 2.58-2.96 3.88-4.44 0.718-0.825 1.44-1.65 2.18-2.5 4.13-4.68 8.31-9.02 13.1-13 1.76-1.45 1.76-1.45 3.33-3.16 1.4-1.31 1.4-1.31 3.4-1.31 0.342-0.859 0.342-0.859 0.691-1.73 4.68-8.1 15.8-13.9 23.3-19.3 1.15-0.836 2.3-1.67 3.45-2.51 9.52-6.91 19.1-12.9 29.7-18 2.52-1.3 4.84-2.7 7.2-4.27 3.15-2.06 5.81-2.9 9.62-3.19v-2c6.22-2.89 12.5-5.34 19-7.56 0.838-0.291 1.68-0.581 2.54-0.881 20.5-7.08 40.8-12.9 62.3-15.6 1.35-0.167 1.35-0.167 2.72-0.338 0.803-0.095 1.61-0.19 2.43-0.288 2.05-0.237 2.05-0.237 3.98-1.33 38.2-4.64 83.8-1.62 120 12.2z" fill="#242324"/>
<path transform="translate(810 497)" d="m0 0c5.06 2.81 9.48 6.27 13.9 9.94 12.5 10 12.5 10 25.8 18.9 1.07 0.681 2.14 1.36 3.25 2.06v2c0.559 0.259 1.12 0.518 1.7 0.785 7.9 4.17 14.8 10.4 21.8 15.9 4.89 3.86 9.9 7.56 14.9 11.2 4.09 2.97 8.11 6.02 12.1 9.12 4.49 3.49 9.05 6.84 13.7 10.1 4.55 3.22 9.03 6.51 13.4 9.96 2.38 1.88 4.78 3.74 7.19 5.59 1.14 0.876 2.27 1.76 3.41 2.64 2.35 1.82 4.7 3.59 7.18 5.24 6.22 4.15 9.35 9.65 11.2 16.9 0.806 5.61 0.259 10.8-2.39 15.8-5.2 6.21-9.6 11-17.8 12.2-9.69 0.646-16.8-1.09-24.4-7.49v-2c-0.73-0.246-1.46-0.492-2.21-0.746-3.08-1.38-4.97-3.01-7.41-5.32-3.28-3.12-3.28-3.12-7.38-4.94l-3-3c-2.1-1.18-2.1-1.18-4-2v-2c-0.722-0.247-1.44-0.495-2.19-0.75-3.11-1.38-5.18-3.1-7.81-5.25-2.02-1.57-4.04-3.13-6.06-4.69-0.561-0.432-1.12-0.864-1.7-1.31-3.87-2.97-7.76-5.9-11.7-8.82-3.07-2.29-6.09-4.58-9-7.06-2.43-2.13-2.43-2.13-4.88-3.5-3.41-2.06-6.42-4.51-9.53-6.98-2.23-1.76-2.23-1.76-5.16-3.39-2-1.25-2-1.25-3-4.25h-6c7.59e-4 0.653 0.00152 1.31 0.0023 1.98 0.0447 38.7 0.0791 77.4 0.0998 116 0.0025 4.65 0.00509 9.3 0.00773 13.9 5.25e-4 0.925 0.00105 1.85 0.00159 2.8 0.0087 15 0.0245 30 0.0429 45 0.0187 15.4 0.0298 30.7 0.0339 46.1 0.00275 9.49 0.0114 19 0.0277 28.5 0.0106 6.5 0.0138 13 0.0112 19.5-0.00128 3.75 6.93e-4 7.51 0.0114 11.3 0.0115 4.07 0.00757 8.14 0.0021 12.2 0.00583 1.19 0.0117 2.37 0.0177 3.59-0.0517 14.2-0.0517 14.2-4.95 19.6-0.458 0.529-0.915 1.06-1.39 1.6-6.09 5.61-10.1 7.58-18.6 7.34-0.833 0.011-1.67 0.0219-2.52 0.0332-5.3-0.0633-7.91-0.797-11.9-4.6-0.99-0.33-1.98-0.66-3-1-7.05-8.63-8.45-16.2-8.37-27.2-0.0049-1.82-0.0049-1.82-0.00991-3.67-6e-3 -3.35 0.00138-6.69 0.0145-10 0.0109-3.61 0.00448-7.23 2.16e-4 -10.8-0.00563-7.07 0.00467-14.1 0.0203-21.2 0.0176-8.25 0.019-16.5 0.0196-24.7 0.00169-14.7 0.0175-29.4 0.0415-44.2 0.0232-14.3 0.0374-28.5 0.041-42.8 2.23e-4 -0.878 4.46e-4 -1.76 6.75e-4 -2.66 4.43e-4 -1.77 8.85e-4 -3.54 0.00133-5.31 2.2e-4 -0.873 4.39e-4 -1.75 6.65e-4 -2.65 3.24e-4 -1.31 3.24e-4 -1.31 6.55e-4 -2.64 0.00371-13.6 0.0151-27.2 0.0275-40.9 0.00442-4.93 0.00787-9.85 0.0106-14.8 0.00445-7.82 0.0123-15.6 0.0268-23.5 0.00657-3.57 0.0117-7.14 0.0125-10.7 9.41e-4 -3.88 0.00967-7.76 0.0191-11.6-8.66e-4 -1.12-0.00173-2.23-0.00263-3.38 0.026-7.14 0.446-14.2 1.14-21.3-2.64 0.33-5.28 0.66-8 1-0.495 1.49-0.495 1.49-1 3-1.37 0.957-2.74 1.9-4.16 2.79-2.04 1.34-3.93 2.81-5.84 4.34-4.57 3.6-9.28 6.97-14 10.3-3.42 2.41-6.7 4.93-9.96 7.55-2.49 1.89-4.99 3.76-7.5 5.62-5.22 3.9-10.4 7.83-15.6 11.8-12.4 9.56-12.4 9.56-14.9 9.56-0.33 0.99-0.66 1.98-1 3-2.86 2.14-5.47 3.8-8.81 5.06-0.722 0.309-1.44 0.619-2.19 0.938-0.33 0.99-0.66 1.98-1 3-1.65 0.33-3.3 0.66-5 1-0.33 0.99-0.66 1.98-1 3-6.53 2.18-15.2 2.15-21.8 0.129-6.72-3.51-11.8-8.89-14.2-16.1-0.92-7.75-0.0849-13.4 4-20h2c0.206-0.557 0.413-1.11 0.625-1.69 1.88-3.16 4.49-5.11 7.38-7.31 0.612-0.476 1.22-0.951 1.86-1.44 4.26-3.26 8.65-6.26 13.2-9.16 1.96-1.3 1.96-1.3 3.38-2.79 2.3-2.3 4.88-4.16 7.48-6.11 1.03-0.773 2.06-1.55 3.12-2.34 3.01-2.16 3.01-2.16 5.7-3.75 2.17-1.32 3.53-2.62 5.3-4.41 2.74-2.23 5.56-4.36 8.38-6.5 0.755-0.581 1.51-1.16 2.29-1.76 3.68-2.81 7.35-5.36 11.3-7.74 1.01-0.987 2.01-1.99 3-3 1.66-1.26 3.35-2.49 5.06-3.69 0.878-0.623 1.76-1.25 2.66-1.89 2.28-1.43 2.28-1.43 4.28-1.43 0.33-0.99 0.66-1.98 1-3 1.33-0.333 2.67-0.667 4-1 0.33-0.99 0.66-1.98 1-3 1.61-1.25 1.61-1.25 3.75-2.56 4.17-2.66 8.09-5.54 12-8.56 0.542-0.42 1.08-0.839 1.64-1.27 2.41-1.87 4.8-3.76 7.17-5.67 2.49-1.97 5.03-3.84 7.62-5.68 1.29-0.92 1.29-0.92 2.61-1.86 2.21-1.39 2.21-1.39 4.21-1.39 0.33-0.99 0.66-1.98 1-3 1.97-1.47 3.9-2.73 6-4 0.83-0.513 1.66-1.03 2.52-1.55 8.54-5.22 15.9-7.96 25.5-3.38z" fill="#242324"/>
<path transform="translate(500,821)" d="m0 0c18.1-0.0233 36.2-0.041 54.3-0.0518 8.4-0.00516 16.8-0.0122 25.2-0.0236 7.32-0.00995 14.6-0.0164 22-0.0186 3.88-0.00131 7.75-0.00439 11.6-0.0116 3.65-0.00677 7.29-0.00889 10.9-0.00738 1.98-4.08e-4 3.96-0.0058 5.95-0.0113 1.76 0.00206 1.76 0.00206 3.55 0.00417 1.02-9.22e-4 2.05-0.00184 3.1-0.00279 2.42 0.123 2.42 0.123 4.42 1.12v2h-140c-0.33-0.99-0.66-1.98-1-3z" fill="#F9FCFD"/>
<path transform="translate(1099,820)" d="m0 0c0.33 0.99 0.66 1.98 1 3-2.61 1.31-4.52 1.12-7.44 1.12-1.16 0.00137-2.31 0.00275-3.5 0.00417-1.27-0.0036-2.55-0.00719-3.86-0.0109-1.35-2.82e-4 -2.7-1.24e-4 -4.05 4.43e-4 -3.67 2.88e-4 -7.34-0.0056-11-0.0126-3.83-0.00624-7.67-0.00684-11.5-0.00803-7.26-0.00311-14.5-0.0113-21.8-0.0213-8.27-0.0112-16.5-0.0167-24.8-0.0217-17-0.0105-34-0.0281-51-0.0503v-2c2.56-1.28 4.4-1.14 7.27-1.16 1.12-0.00979 2.23-0.0196 3.39-0.0297 1.23-0.00576 2.46-0.0115 3.73-0.0174 1.29-0.0099 2.59-0.0198 3.92-0.03 3.55-0.0271 7.1-0.0481 10.7-0.068 3.71-0.0219 7.43-0.0492 11.1-0.0761 7.04-0.05 14.1-0.0949 21.1-0.138 8-0.0493 16-0.104 24-0.16 12.4-0.086 24.9-0.169 37.3-0.247 1.23-0.00778 2.46-0.0156 3.73-0.0236 1.12-0.00697 2.24-0.0139 3.39-0.0211 1.46-0.00911 1.46-0.00911 2.96-0.0184 1.81-0.00953 3.63-0.0128 5.44-0.0128z" fill="#F9FCFD"/>
<path transform="translate(824,571)" d="m0 0c2.88 0.125 2.88 0.125 6 1 1.88 2.56 1.88 2.56 3 5-2.31-0.33-4.62-0.66-7-1 0.167 1.12 0.335 2.25 0.508 3.41 0.845 7.67 0.501 15.4 0.371 23.1-0.0243 1.69-0.0482 3.38-0.0715 5.07-0.0625 4.42-0.132 8.85-0.202 13.3-0.071 4.52-0.136 9.05-0.201 13.6-0.129 8.86-0.264 17.7-0.404 26.6-0.99-0.33-1.98-0.66-3-1-0.0231-11.5-0.0409-22.9-0.0518-34.4-0.00523-5.32-0.0123-10.6-0.0236-16-0.0108-5.13-0.0168-10.3-0.0194-15.4-0.00185-1.96-0.00548-3.92-0.0109-5.88-0.00721-2.74-0.00826-5.47-0.0078-8.21-0.0036-0.819-0.00719-1.64-0.0109-2.48 0.0104-5.59 0.0104-5.59 1.12-6.71z" fill="#F9FCFD"/>
<path transform="translate(394,695)" d="m0 0 2 1v2h2c1.23 1.8 1.23 1.8 2.62 4.31 4.17 7.19 8.96 13.9 14.4 20.2 2 2.44 2 2.44 2 4.44 1.32 0.66 2.64 1.32 4 2v2c0.536 0.219 1.07 0.438 1.62 0.664 3.2 1.8 5.72 4.21 8.38 6.71 0.781 0.723 0.781 0.723 1.58 1.46 2.87 2.66 5.67 5.38 8.42 8.16-6.93-2.31-12-6.78-17-12-0.541-0.521-1.08-1.04-1.64-1.58-1.49-1.44-2.93-2.93-4.36-4.42v-2h-2v-2h-2c-7.37-6.95-13.6-15.9-18-25-0.66-0.99-1.32-1.98-2-3v-3z" fill="#F9FCFD"/>
<path transform="translate(1012,316)" d="m0 0 4 2v2c0.99 0.33 1.98 0.66 3 1 1.54 1.53 1.54 1.53 3.19 3.5 2.56 3.02 5.15 6 7.81 8.94 14 15.7 14 15.7 14 20.6h2c1.3 1.84 1.3 1.84 2.75 4.38 0.785 1.35 0.785 1.35 1.59 2.73 0.549 0.954 1.1 1.91 1.66 2.89 1.12 1.88 2.25 3.75 3.38 5.62 0.875 1.46 1.75 2.92 2.62 4.38l-2 1c-6.84-9.54-6.84-9.54-9.19-13.8-1.73-3.04-3.61-5.48-5.81-8.19-1.26-1.72-2.51-3.45-3.75-5.19-0.614-0.86-1.23-1.72-1.86-2.61-1.39-2.21-1.39-2.21-1.39-4.21h-2c-0.925-1.37-1.84-2.75-2.73-4.14-2.85-4.15-6.32-8.02-9.99-11.5-1.29-1.39-1.29-1.39-1.29-3.39-0.619-0.248-1.24-0.495-1.88-0.75-2.48-1.46-3.08-2.63-4.12-5.25z" fill="#F9FCFD"/>
<path transform="translate(1216,496)" d="m0 0c10.9 3.65 21.2 23.5 27 33 0.5 0.797 1 1.59 1.52 2.41 3.04 4.91 5.76 9.94 8.36 15.1 0.311 0.612 0.621 1.22 0.941 1.85 2.18 4.4 2.18 4.4 2.18 6.65h-2c-0.461-0.958-0.923-1.92-1.4-2.9-6.31-12.9-12.9-26.1-22.1-37.2-1.48-1.81-2.78-3.67-4.08-5.6-1.66-2.38-3.34-4.09-5.62-5.88-2.85-2.41-3.8-3.84-4.81-7.38z" fill="#F9FCFD"/>
<path transform="translate(775,572)" d="m0 0c-0.33 23.8-0.66 47.5-1 72h-1v-68c-5.82 1.58-5.82 1.58-11 4 2.32-5.91 6.82-9.54 13-8z" fill="#F9FCFD"/>
<path transform="translate(793,276)" d="m0 0c0.495 1.49 0.495 1.49 1 3-1.09 0.083-1.09 0.083-2.2 0.168-3.35 0.256-6.7 0.513-10.1 0.77-1.14 0.087-2.28 0.174-3.45 0.264-7.43 0.57-14.9 1.17-22.3 1.8v-2c4.21-1.6 7.52-2.1 12-2l2-1c7.63-1.11 15.3-1.12 23-1z" fill="#F9FCFD"/>
<path transform="translate(755,587)" d="m0 0h3v2h2v-2h3c-0.186 0.577-0.371 1.15-0.562 1.75-0.478 2.46-0.195 3.89 0.562 6.25-4.31 0.943-8.62 1.48-13 2 0.33-1.32 0.66-2.64 1-4h3c0.33-0.66 0.66-1.32 1-2h-2c0.66-1.32 1.32-2.64 2-4z" fill="#FBFDFF"/>
<path transform="translate(829 277)" d="m0 0c1.02 0.0831 2.03 0.166 3.08 0.252 0.974 0.0883 1.95 0.177 2.95 0.268 0.893 0.0797 1.79 0.159 2.71 0.241 2.33 0.427 2.33 0.427 5.33 2.43v2c-4.13-0.248-8.25-0.527-12.4-0.812-1.18-0.0703-2.35-0.141-3.56-0.213-1.12-0.0806-2.24-0.161-3.4-0.244-1.56-0.102-1.56-0.102-3.14-0.206-2.52-0.524-2.52-0.524-4.52-3.52 3.86-1.93 8.74-0.578 12.9-0.188z" fill="#F9FCFD"/>
<path transform="translate(699,625)" d="m0 0c0.99 0.33 1.98 0.66 3 1-1.62 1.34-3.25 2.67-4.88 4-0.905 0.742-1.81 1.49-2.74 2.25-2.38 1.75-2.38 1.75-4.38 1.75v2c-0.639 0.289-1.28 0.577-1.94 0.875-2.21 0.953-2.21 0.953-3.06 3.12-3.19 2.13-6.41 3.67-10 5 0.188-1.88 0.188-1.88 1-4 2.38-1.06 2.38-1.06 5-2 1-0.996 2-2 3-3 2.25-1.56 4.54-3.03 6.84-4.5 1.97-1.37 3.49-2.79 5.16-4.5 0.99-0.66 1.98-1.32 3-2z" fill="#F9FDFD"/>
<path transform="translate(959,273)" d="m0 0c5.66 1.45 10.5 4.32 15 8v2c1.04 0.336 1.04 0.336 2.11 0.68 3.56 1.62 6.28 3.91 9.21 6.45 0.825 0.702 0.825 0.702 1.67 1.42 1.35 1.15 2.68 2.3 4.02 3.46-3.39 0-3.93-0.424-6.51-2.41-0.676-0.514-1.35-1.03-2.05-1.56-0.702-0.545-1.4-1.09-2.13-1.65-0.683-0.522-1.37-1.04-2.07-1.58-1.38-1.06-2.76-2.12-4.14-3.18-2.14-1.64-4.28-3.27-6.43-4.9-0.949-0.717-0.949-0.717-1.92-1.45-2.17-1.57-4.45-2.9-6.75-4.27v-1z" fill="#F9FCFD"/>
<path transform="translate(497,488)" d="m0 0c0.33 0.99 0.66 1.98 1 3-2.6 0.671-5.21 1.34-7.81 2-0.738 0.191-1.48 0.382-2.24 0.578-3.06 0.775-5.78 1.42-8.95 1.42 1-3 1-3 2.94-4.06 4.8-1.47 10-2.94 15.1-2.94z" fill="#F9FCFD"/>
<path transform="translate(954,605)" d="m0 0c4.72 3.96 6.93 7.9 8 14-0.052 3.12-0.46 5.91-1 9-0.99-0.66-1.98-1.32-3-2 0.227-0.99 0.454-1.98 0.688-3 0.835-5.7-1.59-10.3-4.69-15v-3z" fill="#F9FCFD"/>
<path transform="translate(698,299)" d="m0 0c-2.23 3.35-2.98 3.6-6.62 4.88-4.35 1.62-7.98 3.61-11.8 6.27-0.789 0.423-0.789 0.423-1.59 0.855l-2-1c2.36-3.54 4.14-4.26 7.94-6.06 10.7-5.12 10.7-5.12 14.1-4.94z" fill="#F9FCFD"/>
<path transform="translate(566,439)" d="m0 0h2c-0.685 4.99-2.02 9.6-3.56 14.4-0.351 1.1-0.351 1.1-0.709 2.23-0.573 1.8-1.15 3.6-1.73 5.39-1.58-2.45-2.05-3.62-1.64-6.55 0.275-0.911 0.549-1.82 0.832-2.76 0.289-0.962 0.577-1.92 0.875-2.91 1.14-3.36 2.44-6.56 3.94-9.77z" fill="#F9FCFD"/>
<path transform="translate(378,622)" d="m0 0h2v17h-2c-1.43-2.85-1.13-5.32-1.12-8.5-0.00258-1.17-0.00516-2.33-0.00781-3.53 0.133-2.97 0.133-2.97 1.13-4.97z" fill="#F9FCFD"/>
<path transform="translate(830,511)" d="m0 0c2.48 0.99 2.48 0.99 5 2v2c0.866 0.227 1.73 0.454 2.62 0.688 3.88 1.51 6.28 3.55 9.38 6.31 0.784 0.557 1.57 1.11 2.38 1.69 0.536 0.433 1.07 0.866 1.62 1.31v2c-3.94-1.37-6.73-3.16-9.94-5.81-0.862-0.709-1.72-1.42-2.61-2.15-0.808-0.673-1.62-1.35-2.45-2.04-0.654-0.529-1.31-1.06-1.98-1.6-1.36-1.11-2.69-2.25-4.02-3.4v-1z" fill="#F9FCFD"/>
<path transform="translate(895,560)" d="m0 0c4.28 1.47 7.47 3.64 11.1 6.38 1.02 0.771 2.04 1.54 3.1 2.34 2.46 1.98 4.67 4.01 6.84 6.29-3.43 0-4.06-0.516-6.72-2.52-0.703-0.528-1.41-1.06-2.13-1.6-0.729-0.559-1.46-1.12-2.21-1.69-0.733-0.547-1.47-1.09-2.22-1.66-3.17-2.4-5.49-4.18-7.72-7.53z" fill="#F9FCFD"/>
<path transform="translate(945,646)" d="m0 0c-3.35 2.03-5.87 2.22-9.75 2.12-0.985-0.018-1.97-0.0361-2.98-0.0547-1.12-0.0348-1.12-0.0348-2.27-0.0703-0.33-0.99-0.66-1.98-1-3 2.1-0.222 4.21-0.427 6.31-0.625 1.17-0.116 2.34-0.232 3.55-0.352 3.14-0.0234 3.14-0.0234 6.14 1.98z" fill="#F9FCFD"/>
<path transform="translate(657,644)" d="m0 0c1.96 0.114 3.92 0.241 5.88 0.375 1.09 0.0696 2.18 0.139 3.3 0.211 2.82 0.414 2.82 0.414 4.82 2.41-1 1-1 1-3.65 1.13-1.08-0.00258-2.17-0.00516-3.29-0.00781-1.62 0.00387-1.62 0.00387-3.28 0.00781-2.79-0.133-2.79-0.133-4.79-1.13 0.33-0.99 0.66-1.98 1-3z" fill="#F9FCFD"/>
<path transform="translate(808,496)" d="m0 0c4.42 0.535 6.93 2.13 10.4 4.81 3.03 2.29 6.03 4.54 9.25 6.56 0.763 0.536 1.53 1.07 2.31 1.62v2c-3.58-1.65-6.77-3.77-10-6-0.838-0.576-1.68-1.15-2.54-1.75-7.19-4.98-7.19-4.98-9.46-7.25z" fill="#F9FCFD"/>
<path transform="translate(793,900)" d="m0 0c1.94 0.114 3.88 0.242 5.81 0.375 1.08 0.0696 2.16 0.139 3.27 0.211 2.92 0.414 2.92 0.414 5.92 2.41-2.59 1.29-4.55 1.17-7.44 1.19-0.968 0.0142-1.94 0.0284-2.93 0.043-2.63-0.23-2.63-0.23-5.63-2.23 0.33-0.66 0.66-1.32 1-2z" fill="#F9FCFD"/>
<path transform="translate(554,476)" d="m0 0h2c-2.28 5.6-6.71 9.28-12 12h-2c1.49-4.33 4.06-5.03 8-7 1.37-1.64 2.71-3.3 4-5z" fill="#F9FDFD"/>
<path transform="translate(670,776)" d="m0 0c5.23 1.38 7.95 4.76 11 9 1.56 2.7 2 3.81 2 7h-2c-0.375-0.736-0.75-1.47-1.14-2.23-2.8-5.33-5.26-9.85-9.86-13.8z" fill="#F9FCFD"/>
<path transform="translate(1079 486)" d="m0 0c0.887-0.00258 1.77-0.00516 2.69-0.00781 2.31 0.133 2.31 0.133 4.31 1.13v2h-14v-2c2.49-1.24 4.23-1.13 7-1.12z" fill="#F9FCFD"/>
<path transform="translate(1067,395)" d="m0 0c4.09 2.44 5.16 5.16 6.75 9.56 0.642 1.73 0.642 1.73 1.3 3.5 0.953 2.93 0.953 2.93 0.953 4.93h-2c-0.619-1.45-0.619-1.45-1.25-2.94-1.6-3.74-3.28-7.45-4.98-11.1-0.77-1.92-0.77-1.92-0.77-3.92z" fill="#F9FCFD"/>
<path transform="translate(665,317)" d="m0 0v2c-1.98 0.66-3.96 1.32-6 2v2c-5.29 4-5.29 4-9 4 4.12-5.33 7.79-10 15-10z" fill="#F9FDFD"/>
<path transform="translate(930,586)" d="m0 0c2.48 0.99 2.48 0.99 5 2v2c1.32 0.33 2.64 0.66 4 1v2c0.742 0.247 1.49 0.495 2.25 0.75 2.95 1.34 4.6 2.86 6.75 5.25-4.21 0-6.4-2.31-9.56-4.81-0.885-0.678-0.885-0.678-1.79-1.37-2.73-2.13-4.72-3.92-6.65-6.82z" fill="#F9FCFD"/>
<path transform="translate(1081,430)" d="m0 0h2c0.66 2.31 1.32 4.62 2 7 0.652-0.0116 1.3-0.0232 1.98-0.0352 4.8-0.0496 9.3 0.041 14 1.04v1c-11.5 0.239-11.5 0.239-17-1-2.42-2.87-3-4.24-3-8z" fill="#F9FCFD"/>
<path transform="translate(1200,481)" d="m0 0c4.85 1.96 7.46 4.36 10.6 8.38 1.49 1.88 1.49 1.88 4.39 3.62v2c-3.13-1.38-5.16-2.96-7.5-5.44-1.93-2-3.7-3.71-5.94-5.38-0.516-0.392-1.03-0.784-1.56-1.19v-2z" fill="#F9FCFD"/>
<path transform="translate(826,867)" d="m0 0v12c-0.99-0.33-1.98-0.66-3-1v-10c2-1 2-1 3-1z" fill="#F9FCFD"/>
<path transform="translate(387,680)" d="m0 0h2c1.98 4.62 3.96 9.24 6 14-3.65-1.22-4.37-2.79-6.15-6.08-1.15-2.59-1.58-5.11-1.85-7.92z" fill="#F9FCFD"/>
<path transform="translate(734,284)" d="m0 0c0.33 0.99 0.66 1.98 1 3-4.95 1.49-4.95 1.49-10 3v-3c6.75-3 6.75-3 9-3z" fill="#F9FCFD"/>
<path transform="translate(381,598)" d="m0 0h2c-0.33 3.3-0.66 6.6-1 10-0.99-0.33-1.98-0.66-3-1 0.875-7.88 0.875-7.88 2-9z" fill="#F9FCFD"/>
<path transform="translate(751,586)" d="m0 0c0.99 0.33 1.98 0.66 3 1-0.99 0.33-1.98 0.66-3 1-0.33 0.99-0.66 1.98-1 3-1.96 1.4-3.95 2.74-6 4-0.66-0.33-1.32-0.66-2-1 6.08-6.25 6.08-6.25 9-8z" fill="#F9FCFD"/>
<path transform="translate(871,542)" d="m0 0c4.49 1.5 8.49 3.82 12 7 0.33 0.99 0.66 1.98 1 3-5.34-1.5-9.14-5.17-13-9v-1z" fill="#F9FCFD"/>
<path transform="translate(664,821)" d="m0 0c0.66 0.33 1.32 0.66 2 1v2h-10v-2c2.74-1.37 4.97-1.13 8-1z" fill="#F9FCFD"/>
<path transform="translate(891,620)" d="m0 0c2.94 0.812 2.94 0.812 6 2 0.33 0.99 0.66 1.98 1 3 0.959 0.217 0.959 0.217 1.94 0.438 2.06 0.562 2.06 0.562 3.31 2.62 0.247 0.639 0.495 1.28 0.75 1.94-0.99-0.33-1.98-0.66-3-1v-2c-0.722-0.227-1.44-0.454-2.19-0.688-3.34-1.56-5.33-3.62-7.81-6.31z" fill="#F9FCFD"/>
<path transform="translate(1098,488)" d="m0 0c6.62-0.25 6.62-0.25 10 2v2c-3.3-0.66-6.6-1.32-10-2v-2z" fill="#F9FCFD"/>
<path transform="translate(1064,486)" d="m0 0c2.31 0.33 4.62 0.66 7 1v3c-2.64-0.33-5.28-0.66-8-1 0.33-0.99 0.66-1.98 1-3z" fill="#F9FCFD"/>
<path transform="translate(582,406)" d="m0 0c0.33 0.66 0.66 1.32 1 2-0.996 2.16-0.996 2.16-2.44 4.62-0.473 0.817-0.946 1.63-1.43 2.48-0.373 0.626-0.745 1.25-1.13 1.9h-1c0.492-6.4 0.492-6.4 3.06-9.44 0.959-0.773 0.959-0.773 1.94-1.56z" fill="#F9FDFD"/>
<path transform="translate(746,281)" d="m0 0c0.66 0.99 1.32 1.98 2 3-3.3 0.66-6.6 1.32-10 2 0.66-1.32 1.32-2.64 2-4 3.12-0.75 3.12-0.75 6-1z" fill="#F9FCFD"/>
</svg>
